<svg xmlns="http://www.w3.org/2000/svg" xmlns:xlink="http://www.w3.org/1999/xlink" width="216" zoomAndPan="magnify" viewBox="0 0 162 185.999996" height="248" preserveAspectRatio="xMidYMid meet" version="1.0"><defs><clipPath id="1fc5d94cd9"><path d="M 0 0 L 19.652344 0 L 19.652344 186 L 0 186 Z M 0 0 " clip-rule="nonzero"/></clipPath><clipPath id="158659427f"><path d="M 145.804688 0 L 162 0 L 162 186 L 145.804688 186 Z M 145.804688 0 " clip-rule="nonzero"/></clipPath></defs><g clip-path="url(#1fc5d94cd9)"><path fill="#5e17eb" d="M -2.113281 188.894531 C -2.125 189.613281 -2.0625 190.324219 -1.929688 191.03125 C -1.800781 191.738281 -1.601562 192.425781 -1.332031 193.09375 C -1.0625 193.757812 -0.734375 194.394531 -0.339844 194.992188 C 0.0546875 195.59375 0.503906 196.152344 1.007812 196.664062 C 1.515625 197.175781 2.0625 197.632812 2.660156 198.035156 C 3.253906 198.4375 3.882812 198.777344 4.546875 199.054688 C 5.210938 199.332031 5.894531 199.542969 6.597656 199.683594 C 7.304688 199.824219 8.015625 199.894531 8.734375 199.894531 C 9.453125 199.894531 10.164062 199.824219 10.871094 199.683594 C 11.574219 199.542969 12.257812 199.332031 12.921875 199.054688 C 13.585938 198.777344 14.214844 198.4375 14.808594 198.035156 C 15.40625 197.632812 15.957031 197.175781 16.460938 196.664062 C 16.964844 196.152344 17.414062 195.59375 17.808594 194.992188 C 18.203125 194.394531 18.535156 193.757812 18.800781 193.09375 C 19.070312 192.425781 19.269531 191.738281 19.402344 191.03125 C 19.53125 190.324219 19.59375 189.613281 19.582031 188.894531 L 19.582031 2.339844 C 19.59375 1.621094 19.53125 0.910156 19.402344 0.203125 C 19.269531 -0.503906 19.070312 -1.191406 18.800781 -1.859375 C 18.535156 -2.527344 18.203125 -3.160156 17.808594 -3.761719 C 17.414062 -4.363281 16.964844 -4.917969 16.460938 -5.429688 C 15.957031 -5.941406 15.40625 -6.398438 14.808594 -6.800781 C 14.214844 -7.203125 13.585938 -7.542969 12.921875 -7.820312 C 12.257812 -8.101562 11.574219 -8.308594 10.871094 -8.449219 C 10.164062 -8.59375 9.453125 -8.664062 8.734375 -8.664062 C 8.015625 -8.664062 7.304688 -8.59375 6.597656 -8.449219 C 5.894531 -8.308594 5.210938 -8.101562 4.546875 -7.820312 C 3.882812 -7.542969 3.253906 -7.203125 2.660156 -6.800781 C 2.0625 -6.398438 1.511719 -5.941406 1.007812 -5.429688 C 0.503906 -4.917969 0.0546875 -4.363281 -0.339844 -3.761719 C -0.734375 -3.160156 -1.0625 -2.527344 -1.332031 -1.859375 C -1.601562 -1.191406 -1.800781 -0.503906 -1.929688 0.203125 C -2.0625 0.910156 -2.125 1.621094 -2.113281 2.339844 Z M -2.113281 188.894531 " fill-opacity="1" fill-rule="nonzero"/></g><g clip-path="url(#158659427f)"><path fill="#5e17eb" d="M 145.785156 188.894531 C 145.777344 189.613281 145.835938 190.324219 145.96875 191.03125 C 146.101562 191.738281 146.300781 192.425781 146.566406 193.09375 C 146.835938 193.757812 147.167969 194.394531 147.5625 194.992188 C 147.953125 195.59375 148.402344 196.152344 148.910156 196.664062 C 149.414062 197.175781 149.964844 197.632812 150.558594 198.035156 C 151.15625 198.4375 151.785156 198.777344 152.449219 199.054688 C 153.109375 199.332031 153.792969 199.542969 154.5 199.683594 C 155.203125 199.824219 155.914062 199.894531 156.632812 199.894531 C 157.351562 199.894531 158.066406 199.824219 158.769531 199.683594 C 159.476562 199.542969 160.160156 199.332031 160.820312 199.054688 C 161.484375 198.777344 162.113281 198.4375 162.710938 198.035156 C 163.304688 197.632812 163.855469 197.175781 164.359375 196.664062 C 164.863281 196.152344 165.3125 195.59375 165.707031 194.992188 C 166.101562 194.394531 166.433594 193.757812 166.703125 193.09375 C 166.96875 192.425781 167.167969 191.738281 167.300781 191.03125 C 167.433594 190.324219 167.492188 189.613281 167.484375 188.894531 L 167.484375 2.339844 C 167.492188 1.621094 167.433594 0.910156 167.300781 0.203125 C 167.167969 -0.503906 166.96875 -1.191406 166.703125 -1.859375 C 166.433594 -2.527344 166.101562 -3.160156 165.707031 -3.761719 C 165.3125 -4.363281 164.863281 -4.917969 164.359375 -5.429688 C 163.855469 -5.941406 163.304688 -6.398438 162.710938 -6.800781 C 162.113281 -7.203125 161.484375 -7.542969 160.820312 -7.820312 C 160.160156 -8.101562 159.476562 -8.308594 158.769531 -8.449219 C 158.066406 -8.59375 157.351562 -8.664062 156.632812 -8.664062 C 155.914062 -8.664062 155.203125 -8.59375 154.5 -8.449219 C 153.792969 -8.308594 153.109375 -8.101562 152.445312 -7.820312 C 151.785156 -7.542969 151.15625 -7.203125 150.558594 -6.800781 C 149.964844 -6.398438 149.414062 -5.941406 148.910156 -5.429688 C 148.402344 -4.917969 147.953125 -4.363281 147.5625 -3.761719 C 147.167969 -3.160156 146.835938 -2.527344 146.566406 -1.859375 C 146.300781 -1.191406 146.101562 -0.503906 145.96875 0.203125 C 145.835938 0.910156 145.777344 1.621094 145.785156 2.339844 Z M 145.785156 188.894531 " fill-opacity="1" fill-rule="nonzero"/></g><path fill="#212121" d="M 0 222.609375 L 161.996094 222.609375 L 161.996094 -9.042969 L 0 -9.042969 Z M 5.550781 18.152344 L 5.550781 5.742188 L 15.539062 5.742188 L 15.539062 18.152344 Z M 5.550781 39.0625 L 5.550781 26.65625 L 15.539062 26.65625 L 15.539062 39.0625 Z M 5.550781 59.976562 L 5.550781 47.566406 L 15.539062 47.566406 L 15.539062 59.976562 Z M 5.550781 80.890625 L 5.550781 68.484375 L 15.539062 68.484375 L 15.539062 80.890625 Z M 5.550781 101.804688 L 5.550781 89.394531 L 15.539062 89.394531 L 15.539062 101.804688 Z M 5.550781 122.714844 L 5.550781 110.304688 L 15.539062 110.304688 L 15.539062 122.714844 Z M 5.550781 143.628906 L 5.550781 131.21875 L 15.539062 131.21875 L 15.539062 143.628906 Z M 5.550781 164.542969 L 5.550781 152.132812 L 15.539062 152.132812 L 15.539062 164.539062 Z M 5.550781 185.457031 L 5.550781 173.046875 L 15.539062 173.046875 L 15.539062 185.457031 Z M 5.550781 206.367188 L 5.550781 193.960938 L 15.539062 193.960938 L 15.539062 206.367188 Z M 156.472656 193.960938 L 156.472656 206.367188 L 146.484375 206.367188 L 146.484375 193.960938 Z M 156.472656 173.046875 L 156.472656 185.457031 L 146.484375 185.457031 L 146.484375 173.046875 Z M 156.472656 152.132812 L 156.472656 164.539062 L 146.484375 164.539062 L 146.484375 152.132812 Z M 156.472656 131.222656 L 156.472656 143.628906 L 146.484375 143.628906 L 146.484375 131.21875 Z M 156.472656 110.308594 L 156.472656 122.714844 L 146.484375 122.714844 L 146.484375 110.304688 Z M 156.472656 89.394531 L 156.472656 101.804688 L 146.484375 101.804688 L 146.484375 89.394531 Z M 156.472656 68.480469 L 156.472656 80.890625 L 146.484375 80.890625 L 146.484375 68.484375 Z M 156.472656 47.566406 L 156.472656 59.976562 L 146.484375 59.976562 L 146.484375 47.566406 Z M 156.472656 26.65625 L 156.472656 39.0625 L 146.484375 39.0625 L 146.484375 26.652344 Z M 156.472656 5.742188 L 156.472656 18.152344 L 146.484375 18.152344 L 146.484375 5.742188 Z M 140.722656 3.425781 L 140.722656 210.140625 L 21.277344 210.140625 L 21.277344 3.425781 Z M 140.722656 3.425781 " fill-opacity="1" fill-rule="nonzero"/></svg>