<svg xmlns="http://www.w3.org/2000/svg" xmlns:xlink="http://www.w3.org/1999/xlink" width="216" zoomAndPan="magnify" viewBox="0 0 162 215.999996" height="288" preserveAspectRatio="xMidYMid meet" version="1.0"><defs><clipPath id="07a2015a36"><path d="M 0 0 L 19.890625 0 L 19.890625 216 L 0 216 Z M 0 0 " clip-rule="nonzero"/></clipPath><clipPath id="0fa7ecfc13"><path d="M 145.796875 0 L 162 0 L 162 215.992188 L 145.796875 215.992188 Z M 145.796875 0 " clip-rule="nonzero"/></clipPath></defs><g clip-path="url(#07a2015a36)"><path fill="#5e17eb" d="M -3.378906 211.8125 C -3.390625 212.582031 -3.324219 213.34375 -3.183594 214.101562 C -3.042969 214.855469 -2.828125 215.59375 -2.542969 216.304688 C -2.253906 217.019531 -1.902344 217.699219 -1.480469 218.34375 C -1.058594 218.984375 -0.578125 219.582031 -0.0351562 220.128906 C 0.503906 220.675781 1.089844 221.164062 1.730469 221.597656 C 2.367188 222.027344 3.039062 222.390625 3.75 222.6875 C 4.460938 222.984375 5.191406 223.210938 5.945312 223.359375 C 6.699219 223.511719 7.460938 223.585938 8.230469 223.585938 C 9 223.585938 9.761719 223.511719 10.515625 223.359375 C 11.269531 223.210938 12.003906 222.984375 12.710938 222.6875 C 13.421875 222.390625 14.09375 222.027344 14.734375 221.597656 C 15.371094 221.164062 15.957031 220.675781 16.5 220.128906 C 17.039062 219.582031 17.519531 218.984375 17.941406 218.34375 C 18.363281 217.699219 18.71875 217.019531 19.003906 216.304688 C 19.292969 215.59375 19.503906 214.855469 19.644531 214.101562 C 19.785156 213.34375 19.851562 212.582031 19.839844 211.8125 L 19.839844 12.164062 C 19.851562 11.394531 19.785156 10.632812 19.644531 9.875 C 19.503906 9.121094 19.292969 8.386719 19.003906 7.671875 C 18.71875 6.957031 18.363281 6.277344 17.941406 5.636719 C 17.519531 4.992188 17.039062 4.394531 16.5 3.847656 C 15.957031 3.300781 15.371094 2.8125 14.734375 2.378906 C 14.09375 1.949219 13.421875 1.585938 12.710938 1.289062 C 12.003906 0.992188 11.269531 0.769531 10.515625 0.617188 C 9.761719 0.464844 9 0.390625 8.230469 0.390625 C 7.460938 0.390625 6.699219 0.464844 5.945312 0.617188 C 5.191406 0.769531 4.460938 0.992188 3.75 1.289062 C 3.039062 1.585938 2.367188 1.949219 1.730469 2.378906 C 1.089844 2.8125 0.503906 3.300781 -0.0390625 3.847656 C -0.578125 4.394531 -1.058594 4.992188 -1.480469 5.636719 C -1.902344 6.277344 -2.253906 6.957031 -2.542969 7.671875 C -2.828125 8.386719 -3.042969 9.121094 -3.183594 9.875 C -3.324219 10.632812 -3.390625 11.394531 -3.378906 12.164062 Z M -3.378906 211.8125 " fill-opacity="1" fill-rule="nonzero"/></g><g clip-path="url(#0fa7ecfc13)"><path fill="#5e17eb" d="M 145.777344 203.890625 C 145.769531 204.660156 145.832031 205.421875 145.972656 206.179688 C 146.113281 206.9375 146.328125 207.671875 146.613281 208.386719 C 146.902344 209.097656 147.253906 209.777344 147.675781 210.421875 C 148.097656 211.0625 148.578125 211.660156 149.121094 212.207031 C 149.660156 212.753906 150.25 213.246094 150.886719 213.675781 C 151.523438 214.105469 152.195312 214.46875 152.90625 214.765625 C 153.617188 215.0625 154.347656 215.289062 155.101562 215.4375 C 155.855469 215.589844 156.617188 215.667969 157.386719 215.667969 C 158.15625 215.667969 158.917969 215.589844 159.671875 215.4375 C 160.425781 215.289062 161.160156 215.0625 161.871094 214.765625 C 162.578125 214.46875 163.253906 214.105469 163.890625 213.675781 C 164.527344 213.246094 165.117188 212.753906 165.65625 212.207031 C 166.195312 211.660156 166.675781 211.0625 167.097656 210.421875 C 167.519531 209.777344 167.875 209.097656 168.160156 208.386719 C 168.449219 207.671875 168.664062 206.9375 168.804688 206.179688 C 168.945312 205.421875 169.007812 204.660156 168.996094 203.890625 L 168.996094 4.242188 C 169.007812 3.472656 168.945312 2.710938 168.804688 1.953125 C 168.664062 1.199219 168.449219 0.464844 168.160156 -0.25 C 167.875 -0.964844 167.519531 -1.644531 167.097656 -2.285156 C 166.675781 -2.929688 166.195312 -3.523438 165.65625 -4.074219 C 165.117188 -4.621094 164.527344 -5.109375 163.890625 -5.539062 C 163.253906 -5.972656 162.578125 -6.335938 161.871094 -6.632812 C 161.160156 -6.929688 160.425781 -7.152344 159.671875 -7.304688 C 158.917969 -7.457031 158.15625 -7.53125 157.386719 -7.53125 C 156.617188 -7.53125 155.855469 -7.457031 155.101562 -7.304688 C 154.347656 -7.152344 153.617188 -6.929688 152.90625 -6.632812 C 152.195312 -6.335938 151.523438 -5.972656 150.886719 -5.539062 C 150.25 -5.109375 149.660156 -4.621094 149.121094 -4.074219 C 148.578125 -3.523438 148.097656 -2.929688 147.675781 -2.285156 C 147.253906 -1.644531 146.902344 -0.964844 146.613281 -0.25 C 146.328125 0.464844 146.113281 1.199219 145.972656 1.953125 C 145.832031 2.710938 145.769531 3.472656 145.777344 4.242188 Z M 145.777344 203.890625 " fill-opacity="1" fill-rule="nonzero"/></g><path fill="#212121" d="M -0.00390625 225.789062 L 164.996094 225.789062 L 164.996094 -9.476562 L -0.00390625 -9.476562 Z M 5.652344 18.144531 L 5.652344 5.539062 L 15.824219 5.539062 L 15.824219 18.144531 Z M 5.652344 39.382812 L 5.652344 26.78125 L 15.824219 26.78125 L 15.824219 39.382812 Z M 5.652344 60.621094 L 5.652344 48.019531 L 15.824219 48.019531 L 15.824219 60.621094 Z M 5.652344 81.859375 L 5.652344 69.261719 L 15.824219 69.261719 L 15.824219 81.859375 Z M 5.652344 103.101562 L 5.652344 90.496094 L 15.824219 90.496094 L 15.824219 103.101562 Z M 5.652344 124.339844 L 5.652344 111.738281 L 15.824219 111.738281 L 15.824219 124.339844 Z M 5.652344 145.578125 L 5.652344 132.976562 L 15.824219 132.976562 L 15.824219 145.578125 Z M 5.652344 166.816406 L 5.652344 154.214844 L 15.824219 154.214844 L 15.824219 166.816406 Z M 5.652344 188.058594 L 5.652344 175.453125 L 15.824219 175.453125 L 15.824219 188.058594 Z M 5.652344 209.296875 L 5.652344 196.695312 L 15.824219 196.695312 L 15.824219 209.296875 Z M 159.367188 196.695312 L 159.367188 209.296875 L 149.195312 209.296875 L 149.195312 196.695312 Z M 159.367188 175.457031 L 159.367188 188.058594 L 149.195312 188.058594 L 149.195312 175.453125 Z M 159.367188 154.214844 L 159.367188 166.816406 L 149.195312 166.816406 L 149.195312 154.214844 Z M 159.367188 132.976562 L 159.367188 145.578125 L 149.195312 145.578125 L 149.195312 132.976562 Z M 159.367188 111.738281 L 159.367188 124.339844 L 149.195312 124.339844 L 149.195312 111.738281 Z M 159.367188 90.5 L 159.367188 103.101562 L 149.195312 103.101562 L 149.195312 90.496094 Z M 159.367188 69.257812 L 159.367188 81.859375 L 149.195312 81.859375 L 149.195312 69.261719 Z M 159.367188 48.019531 L 159.367188 60.621094 L 149.195312 60.621094 L 149.195312 48.019531 Z M 159.367188 26.78125 L 159.367188 39.382812 L 149.195312 39.382812 L 149.195312 26.777344 Z M 159.367188 5.542969 L 159.367188 18.144531 L 149.195312 18.144531 L 149.195312 5.539062 Z M 143.324219 3.1875 L 143.324219 213.128906 L 21.667969 213.128906 L 21.667969 3.1875 Z M 143.324219 3.1875 " fill-opacity="1" fill-rule="nonzero"/></svg>