<svg xmlns="http://www.w3.org/2000/svg" xmlns:xlink="http://www.w3.org/1999/xlink" width="450" zoomAndPan="magnify" viewBox="0 0 337.5 258.749997" height="345" preserveAspectRatio="xMidYMid meet" version="1.0"><defs><clipPath id="3d691eed7e"><path d="M 0 0.0664062 L 337 0.0664062 L 337 258.433594 L 0 258.433594 Z M 0 0.0664062 " clip-rule="nonzero"/></clipPath><clipPath id="e0f5a43cea"><path d="M 8 0.0664062 L 21 0.0664062 L 21 13 L 8 13 Z M 8 0.0664062 " clip-rule="nonzero"/></clipPath><clipPath id="c52065fd06"><path d="M 315 0.0664062 L 328 0.0664062 L 328 13 L 315 13 Z M 315 0.0664062 " clip-rule="nonzero"/></clipPath><clipPath id="1ba2854be2"><path d="M 319.277344 103.730469 L 324.09375 103.730469 L 324.09375 108.546875 L 319.277344 108.546875 Z M 319.277344 103.730469 " clip-rule="nonzero"/></clipPath><clipPath id="c294c49fc0"><path d="M 322.828125 103.894531 L 322.0625 105.734375 L 323.914062 104.96875 L 324.09375 105.363281 L 322.234375 106.128906 L 324.09375 106.894531 L 323.914062 107.28125 L 322.0625 106.515625 L 322.828125 108.367188 L 322.441406 108.546875 L 321.675781 106.6875 L 320.910156 108.546875 L 320.523438 108.367188 L 321.28125 106.515625 L 319.4375 107.28125 L 319.277344 106.894531 L 321.117188 106.128906 L 319.277344 105.363281 L 319.4375 104.976562 L 321.28125 105.734375 L 320.523438 103.894531 L 320.910156 103.730469 L 321.675781 105.574219 L 322.441406 103.730469 Z M 322.828125 103.894531 " clip-rule="nonzero"/></clipPath><clipPath id="6a001ee2f8"><path d="M 0.277344 0.730469 L 5.09375 0.730469 L 5.09375 5.546875 L 0.277344 5.546875 Z M 0.277344 0.730469 " clip-rule="nonzero"/></clipPath><clipPath id="31bbd2a78b"><path d="M 3.828125 0.894531 L 3.0625 2.734375 L 4.914062 1.96875 L 5.09375 2.363281 L 3.234375 3.128906 L 5.09375 3.894531 L 4.914062 4.28125 L 3.0625 3.515625 L 3.828125 5.367188 L 3.441406 5.546875 L 2.675781 3.6875 L 1.910156 5.546875 L 1.523438 5.367188 L 2.28125 3.515625 L 0.4375 4.28125 L 0.277344 3.894531 L 2.117188 3.128906 L 0.277344 2.363281 L 0.4375 1.976562 L 2.28125 2.734375 L 1.523438 0.894531 L 1.910156 0.730469 L 2.675781 2.574219 L 3.441406 0.730469 Z M 3.828125 0.894531 " clip-rule="nonzero"/></clipPath><clipPath id="b65eb1abee"><rect x="0" width="6" y="0" height="6"/></clipPath></defs><g clip-path="url(#3d691eed7e)"><path fill="#000000" d="M 0 -624.75 L 0 405.742188 L 338.976562 405.742188 L 338.976562 -624.75 Z M 303.722656 -4.65625 L 303.722656 263.808594 L 35.257812 263.808594 L 35.257812 -4.65625 Z M 303.722656 -294.535156 L 303.722656 -26.796875 L 35.257812 -26.796875 L 35.257812 -295.261719 L 302.996094 -295.261719 C 303.390625 -295.261719 303.722656 -294.933594 303.722656 -294.535156 Z M 303.722656 -585.875 L 303.722656 -317.414062 L 35.257812 -317.414062 L 35.257812 -585.875 Z M 303.722656 -585.875 " fill-opacity="1" fill-rule="nonzero"/></g><g clip-path="url(#e0f5a43cea)"><path fill="#5e17eb" d="M 8.296875 0.0820312 L 20.792969 0.0820312 L 20.792969 12.574219 L 8.296875 12.574219 Z M 8.296875 0.0820312 " fill-opacity="1" fill-rule="nonzero"/></g><path fill="#5e17eb" d="M 8.296875 38.503906 L 20.792969 38.503906 L 20.792969 50.996094 L 8.296875 50.996094 Z M 8.296875 38.503906 " fill-opacity="1" fill-rule="nonzero"/><path fill="#5e17eb" d="M 8.296875 76.910156 L 20.792969 76.910156 L 20.792969 89.402344 L 8.296875 89.402344 Z M 8.296875 76.910156 " fill-opacity="1" fill-rule="nonzero"/><path fill="#5e17eb" d="M 8.296875 115.332031 L 20.792969 115.332031 L 20.792969 127.824219 L 8.296875 127.824219 Z M 8.296875 115.332031 " fill-opacity="1" fill-rule="nonzero"/><path fill="#5e17eb" d="M 8.296875 153.75 L 20.792969 153.75 L 20.792969 166.242188 L 8.296875 166.242188 Z M 8.296875 153.75 " fill-opacity="1" fill-rule="nonzero"/><path fill="#5e17eb" d="M 8.296875 192.171875 L 20.792969 192.171875 L 20.792969 204.664062 L 8.296875 204.664062 Z M 8.296875 192.171875 " fill-opacity="1" fill-rule="nonzero"/><path fill="#5e17eb" d="M 8.296875 230.578125 L 20.792969 230.578125 L 20.792969 243.074219 L 8.296875 243.074219 Z M 8.296875 230.578125 " fill-opacity="1" fill-rule="nonzero"/><g clip-path="url(#c52065fd06)"><path fill="#5e17eb" d="M 315.421875 0.0820312 L 327.914062 0.0820312 L 327.914062 12.574219 L 315.421875 12.574219 Z M 315.421875 0.0820312 " fill-opacity="1" fill-rule="nonzero"/></g><path fill="#5e17eb" d="M 315.421875 38.503906 L 327.914062 38.503906 L 327.914062 50.996094 L 315.421875 50.996094 Z M 315.421875 38.503906 " fill-opacity="1" fill-rule="nonzero"/><path fill="#5e17eb" d="M 315.421875 76.910156 L 327.914062 76.910156 L 327.914062 89.402344 L 315.421875 89.402344 Z M 315.421875 76.910156 " fill-opacity="1" fill-rule="nonzero"/><path fill="#5e17eb" d="M 315.421875 115.332031 L 327.914062 115.332031 L 327.914062 127.824219 L 315.421875 127.824219 Z M 315.421875 115.332031 " fill-opacity="1" fill-rule="nonzero"/><path fill="#5e17eb" d="M 315.421875 153.75 L 327.914062 153.75 L 327.914062 166.242188 L 315.421875 166.242188 Z M 315.421875 153.75 " fill-opacity="1" fill-rule="nonzero"/><path fill="#5e17eb" d="M 315.421875 192.171875 L 327.914062 192.171875 L 327.914062 204.664062 L 315.421875 204.664062 Z M 315.421875 192.171875 " fill-opacity="1" fill-rule="nonzero"/><path fill="#5e17eb" d="M 315.421875 230.578125 L 327.914062 230.578125 L 327.914062 243.074219 L 315.421875 243.074219 Z M 315.421875 230.578125 " fill-opacity="1" fill-rule="nonzero"/><path fill="#5e17eb" d="M 90.851562 16.023438 C 90.851562 16.261719 90.765625 16.46875 90.597656 16.640625 C 90.425781 16.808594 90.21875 16.894531 89.980469 16.894531 C 89.738281 16.894531 89.53125 16.808594 89.363281 16.640625 C 89.191406 16.46875 89.105469 16.261719 89.105469 16.023438 C 89.105469 15.78125 89.191406 15.574219 89.363281 15.402344 C 89.53125 15.234375 89.738281 15.148438 89.980469 15.148438 C 90.21875 15.148438 90.425781 15.234375 90.597656 15.402344 C 90.765625 15.574219 90.851562 15.78125 90.851562 16.023438 Z M 90.851562 16.023438 " fill-opacity="1" fill-rule="nonzero"/><path fill="#5e17eb" d="M 96.929688 16.023438 C 96.929688 16.253906 96.847656 16.449219 96.683594 16.613281 C 96.519531 16.777344 96.320312 16.859375 96.089844 16.859375 C 95.859375 16.859375 95.660156 16.777344 95.496094 16.613281 C 95.332031 16.449219 95.25 16.253906 95.25 16.023438 C 95.25 15.789062 95.332031 15.59375 95.496094 15.429688 C 95.660156 15.265625 95.859375 15.183594 96.089844 15.183594 C 96.320312 15.183594 96.519531 15.265625 96.683594 15.429688 C 96.847656 15.59375 96.929688 15.789062 96.929688 16.023438 Z M 96.929688 16.023438 " fill-opacity="1" fill-rule="nonzero"/><path fill="#5e17eb" d="M 103.015625 16.023438 C 103.015625 16.242188 102.9375 16.433594 102.78125 16.589844 C 102.625 16.746094 102.433594 16.828125 102.210938 16.828125 C 101.988281 16.828125 101.800781 16.746094 101.640625 16.589844 C 101.484375 16.433594 101.40625 16.242188 101.40625 16.023438 C 101.40625 15.800781 101.484375 15.609375 101.640625 15.453125 C 101.800781 15.296875 101.988281 15.214844 102.210938 15.214844 C 102.433594 15.214844 102.625 15.296875 102.78125 15.453125 C 102.9375 15.609375 103.015625 15.800781 103.015625 16.023438 Z M 103.015625 16.023438 " fill-opacity="1" fill-rule="nonzero"/><path fill="#5e17eb" d="M 109.117188 16.023438 C 109.117188 16.238281 109.039062 16.421875 108.886719 16.574219 C 108.734375 16.726562 108.550781 16.804688 108.332031 16.804688 C 108.117188 16.804688 107.933594 16.726562 107.78125 16.574219 C 107.628906 16.421875 107.550781 16.238281 107.550781 16.023438 C 107.550781 15.804688 107.628906 15.621094 107.78125 15.46875 C 107.933594 15.316406 108.117188 15.238281 108.332031 15.238281 C 108.550781 15.238281 108.734375 15.316406 108.886719 15.46875 C 109.039062 15.621094 109.117188 15.804688 109.117188 16.023438 Z M 109.117188 16.023438 " fill-opacity="1" fill-rule="nonzero"/><path fill="#5e17eb" d="M 115.191406 16.023438 C 115.191406 16.226562 115.117188 16.40625 114.972656 16.550781 C 114.828125 16.695312 114.648438 16.769531 114.445312 16.769531 C 114.238281 16.769531 114.0625 16.695312 113.914062 16.550781 C 113.769531 16.40625 113.695312 16.226562 113.695312 16.023438 C 113.695312 15.816406 113.769531 15.636719 113.914062 15.492188 C 114.0625 15.347656 114.238281 15.273438 114.445312 15.273438 C 114.648438 15.273438 114.828125 15.347656 114.972656 15.492188 C 115.117188 15.636719 115.191406 15.816406 115.191406 16.023438 Z M 115.191406 16.023438 " fill-opacity="1" fill-rule="nonzero"/><path fill="#5e17eb" d="M 121.292969 16.023438 C 121.292969 16.222656 121.21875 16.394531 121.078125 16.535156 C 120.9375 16.675781 120.765625 16.746094 120.566406 16.746094 C 120.363281 16.746094 120.195312 16.675781 120.050781 16.535156 C 119.910156 16.394531 119.839844 16.222656 119.839844 16.023438 C 119.839844 15.820312 119.910156 15.648438 120.050781 15.507812 C 120.195312 15.367188 120.363281 15.296875 120.566406 15.296875 C 120.765625 15.296875 120.9375 15.367188 121.078125 15.507812 C 121.21875 15.648438 121.292969 15.820312 121.292969 16.023438 Z M 121.292969 16.023438 " fill-opacity="1" fill-rule="nonzero"/><path fill="#5e17eb" d="M 127.390625 16.023438 C 127.390625 16.214844 127.320312 16.382812 127.183594 16.519531 C 127.046875 16.65625 126.882812 16.722656 126.6875 16.722656 C 126.492188 16.722656 126.328125 16.65625 126.191406 16.519531 C 126.054688 16.382812 125.984375 16.214844 125.984375 16.023438 C 125.984375 15.828125 126.054688 15.660156 126.191406 15.523438 C 126.328125 15.386719 126.492188 15.320312 126.6875 15.320312 C 126.882812 15.320312 127.046875 15.386719 127.183594 15.523438 C 127.320312 15.660156 127.390625 15.828125 127.390625 16.023438 Z M 127.390625 16.023438 " fill-opacity="1" fill-rule="nonzero"/><path fill="#5e17eb" d="M 133.476562 16.023438 C 133.476562 16.210938 133.410156 16.371094 133.277344 16.503906 C 133.144531 16.636719 132.984375 16.703125 132.796875 16.703125 C 132.609375 16.703125 132.449219 16.636719 132.316406 16.503906 C 132.183594 16.371094 132.117188 16.210938 132.117188 16.023438 C 132.117188 15.832031 132.183594 15.671875 132.316406 15.539062 C 132.449219 15.40625 132.609375 15.339844 132.796875 15.339844 C 132.984375 15.339844 133.144531 15.40625 133.277344 15.539062 C 133.410156 15.671875 133.476562 15.832031 133.476562 16.023438 Z M 133.476562 16.023438 " fill-opacity="1" fill-rule="nonzero"/><path fill="#5e17eb" d="M 139.578125 16.023438 C 139.578125 16.203125 139.511719 16.359375 139.382812 16.488281 C 139.257812 16.613281 139.101562 16.679688 138.917969 16.679688 C 138.738281 16.679688 138.582031 16.613281 138.453125 16.488281 C 138.328125 16.359375 138.261719 16.203125 138.261719 16.023438 C 138.261719 15.839844 138.328125 15.683594 138.453125 15.554688 C 138.582031 15.429688 138.738281 15.363281 138.917969 15.363281 C 139.101562 15.363281 139.257812 15.429688 139.382812 15.554688 C 139.511719 15.683594 139.578125 15.839844 139.578125 16.023438 Z M 139.578125 16.023438 " fill-opacity="1" fill-rule="nonzero"/><path fill="#5e17eb" d="M 145.6875 16.023438 C 145.6875 16.199219 145.625 16.351562 145.5 16.476562 C 145.371094 16.605469 145.21875 16.667969 145.042969 16.667969 C 144.863281 16.667969 144.710938 16.605469 144.585938 16.476562 C 144.457031 16.351562 144.394531 16.199219 144.394531 16.023438 C 144.394531 15.84375 144.457031 15.691406 144.585938 15.566406 C 144.710938 15.4375 144.863281 15.375 145.042969 15.375 C 145.21875 15.375 145.371094 15.4375 145.5 15.566406 C 145.625 15.691406 145.6875 15.84375 145.6875 16.023438 Z M 145.6875 16.023438 " fill-opacity="1" fill-rule="nonzero"/><path fill="#5e17eb" d="M 151.785156 16.023438 C 151.785156 16.195312 151.726562 16.347656 151.601562 16.46875 C 151.476562 16.59375 151.328125 16.65625 151.152344 16.65625 C 150.976562 16.65625 150.828125 16.59375 150.703125 16.46875 C 150.578125 16.347656 150.515625 16.195312 150.515625 16.023438 C 150.515625 15.847656 150.578125 15.695312 150.703125 15.574219 C 150.828125 15.449219 150.976562 15.386719 151.152344 15.386719 C 151.328125 15.386719 151.476562 15.449219 151.601562 15.574219 C 151.726562 15.695312 151.785156 15.847656 151.785156 16.023438 Z M 151.785156 16.023438 " fill-opacity="1" fill-rule="nonzero"/><path fill="#5e17eb" d="M 157.898438 16.023438 C 157.898438 16.195312 157.835938 16.339844 157.714844 16.460938 C 157.59375 16.585938 157.445312 16.644531 157.273438 16.644531 C 157.101562 16.644531 156.953125 16.585938 156.832031 16.460938 C 156.710938 16.339844 156.648438 16.195312 156.648438 16.023438 C 156.648438 15.847656 156.710938 15.703125 156.832031 15.582031 C 156.953125 15.457031 157.101562 15.398438 157.273438 15.398438 C 157.445312 15.398438 157.59375 15.457031 157.714844 15.582031 C 157.835938 15.703125 157.898438 15.847656 157.898438 16.023438 Z M 157.898438 16.023438 " fill-opacity="1" fill-rule="nonzero"/><path fill="#5e17eb" d="M 164.019531 16.023438 C 164.019531 16.195312 163.957031 16.339844 163.835938 16.460938 C 163.714844 16.585938 163.566406 16.644531 163.394531 16.644531 C 163.222656 16.644531 163.078125 16.585938 162.953125 16.460938 C 162.832031 16.339844 162.773438 16.195312 162.773438 16.023438 C 162.773438 15.847656 162.832031 15.703125 162.953125 15.582031 C 163.078125 15.457031 163.222656 15.398438 163.394531 15.398438 C 163.566406 15.398438 163.714844 15.457031 163.835938 15.582031 C 163.957031 15.703125 164.019531 15.847656 164.019531 16.023438 Z M 164.019531 16.023438 " fill-opacity="1" fill-rule="nonzero"/><path fill="#5e17eb" d="M 170.117188 16.023438 C 170.117188 16.191406 170.058594 16.335938 169.9375 16.453125 C 169.820312 16.574219 169.675781 16.632812 169.507812 16.632812 C 169.335938 16.632812 169.191406 16.574219 169.074219 16.453125 C 168.953125 16.335938 168.894531 16.191406 168.894531 16.023438 C 168.894531 15.851562 168.953125 15.707031 169.074219 15.589844 C 169.191406 15.46875 169.335938 15.410156 169.507812 15.410156 C 169.675781 15.410156 169.820312 15.46875 169.9375 15.589844 C 170.058594 15.707031 170.117188 15.851562 170.117188 16.023438 Z M 170.117188 16.023438 " fill-opacity="1" fill-rule="nonzero"/><path fill="#5e17eb" d="M 176.25 16.023438 C 176.25 16.195312 176.191406 16.339844 176.070312 16.460938 C 175.945312 16.585938 175.800781 16.644531 175.628906 16.644531 C 175.457031 16.644531 175.308594 16.585938 175.1875 16.460938 C 175.066406 16.339844 175.003906 16.195312 175.003906 16.023438 C 175.003906 15.847656 175.066406 15.703125 175.1875 15.582031 C 175.308594 15.457031 175.457031 15.398438 175.628906 15.398438 C 175.800781 15.398438 175.945312 15.457031 176.070312 15.582031 C 176.191406 15.703125 176.25 15.847656 176.25 16.023438 Z M 176.25 16.023438 " fill-opacity="1" fill-rule="nonzero"/><path fill="#5e17eb" d="M 182.375 16.023438 C 182.375 16.195312 182.3125 16.339844 182.191406 16.460938 C 182.070312 16.585938 181.921875 16.644531 181.75 16.644531 C 181.578125 16.644531 181.429688 16.585938 181.308594 16.460938 C 181.1875 16.339844 181.125 16.195312 181.125 16.023438 C 181.125 15.847656 181.1875 15.703125 181.308594 15.582031 C 181.429688 15.457031 181.578125 15.398438 181.75 15.398438 C 181.921875 15.398438 182.070312 15.457031 182.191406 15.582031 C 182.3125 15.703125 182.375 15.847656 182.375 16.023438 Z M 182.375 16.023438 " fill-opacity="1" fill-rule="nonzero"/><path fill="#5e17eb" d="M 188.496094 16.023438 C 188.496094 16.195312 188.433594 16.347656 188.308594 16.46875 C 188.183594 16.59375 188.035156 16.65625 187.859375 16.65625 C 187.683594 16.65625 187.535156 16.59375 187.410156 16.46875 C 187.289062 16.347656 187.226562 16.195312 187.226562 16.023438 C 187.226562 15.847656 187.289062 15.695312 187.410156 15.574219 C 187.535156 15.449219 187.683594 15.386719 187.859375 15.386719 C 188.035156 15.386719 188.183594 15.449219 188.308594 15.574219 C 188.433594 15.695312 188.496094 15.847656 188.496094 16.023438 Z M 188.496094 16.023438 " fill-opacity="1" fill-rule="nonzero"/><path fill="#5e17eb" d="M 194.628906 16.023438 C 194.628906 16.199219 194.566406 16.351562 194.4375 16.476562 C 194.3125 16.605469 194.160156 16.667969 193.980469 16.667969 C 193.804688 16.667969 193.652344 16.605469 193.523438 16.476562 C 193.398438 16.351562 193.335938 16.199219 193.335938 16.023438 C 193.335938 15.84375 193.398438 15.691406 193.523438 15.566406 C 193.652344 15.4375 193.804688 15.375 193.980469 15.375 C 194.160156 15.375 194.3125 15.4375 194.4375 15.566406 C 194.566406 15.691406 194.628906 15.84375 194.628906 16.023438 Z M 194.628906 16.023438 " fill-opacity="1" fill-rule="nonzero"/><path fill="#5e17eb" d="M 200.761719 16.023438 C 200.761719 16.203125 200.695312 16.359375 200.570312 16.488281 C 200.441406 16.613281 200.285156 16.679688 200.105469 16.679688 C 199.921875 16.679688 199.765625 16.613281 199.636719 16.488281 C 199.511719 16.359375 199.445312 16.203125 199.445312 16.023438 C 199.445312 15.839844 199.511719 15.683594 199.636719 15.554688 C 199.765625 15.429688 199.921875 15.363281 200.105469 15.363281 C 200.285156 15.363281 200.441406 15.429688 200.570312 15.554688 C 200.695312 15.683594 200.761719 15.839844 200.761719 16.023438 Z M 200.761719 16.023438 " fill-opacity="1" fill-rule="nonzero"/><path fill="#5e17eb" d="M 206.894531 16.023438 C 206.894531 16.210938 206.828125 16.371094 206.695312 16.503906 C 206.5625 16.636719 206.402344 16.703125 206.214844 16.703125 C 206.027344 16.703125 205.867188 16.636719 205.734375 16.503906 C 205.601562 16.371094 205.535156 16.210938 205.535156 16.023438 C 205.535156 15.832031 205.601562 15.671875 205.734375 15.539062 C 205.867188 15.40625 206.027344 15.339844 206.214844 15.339844 C 206.402344 15.339844 206.5625 15.40625 206.695312 15.539062 C 206.828125 15.671875 206.894531 15.832031 206.894531 16.023438 Z M 206.894531 16.023438 " fill-opacity="1" fill-rule="nonzero"/><path fill="#5e17eb" d="M 213.039062 16.023438 C 213.039062 16.214844 212.96875 16.382812 212.832031 16.519531 C 212.695312 16.65625 212.53125 16.722656 212.335938 16.722656 C 212.140625 16.722656 211.976562 16.65625 211.839844 16.519531 C 211.703125 16.382812 211.632812 16.214844 211.632812 16.023438 C 211.632812 15.828125 211.703125 15.660156 211.839844 15.523438 C 211.976562 15.386719 212.140625 15.320312 212.335938 15.320312 C 212.53125 15.320312 212.695312 15.386719 212.832031 15.523438 C 212.96875 15.660156 213.039062 15.828125 213.039062 16.023438 Z M 213.039062 16.023438 " fill-opacity="1" fill-rule="nonzero"/><path fill="#5e17eb" d="M 219.183594 16.023438 C 219.183594 16.222656 219.113281 16.394531 218.972656 16.535156 C 218.828125 16.675781 218.65625 16.746094 218.457031 16.746094 C 218.257812 16.746094 218.085938 16.675781 217.945312 16.535156 C 217.804688 16.394531 217.730469 16.222656 217.730469 16.023438 C 217.730469 15.820312 217.804688 15.648438 217.945312 15.507812 C 218.085938 15.367188 218.257812 15.296875 218.457031 15.296875 C 218.65625 15.296875 218.828125 15.367188 218.972656 15.507812 C 219.113281 15.648438 219.183594 15.820312 219.183594 16.023438 Z M 219.183594 16.023438 " fill-opacity="1" fill-rule="nonzero"/><path fill="#5e17eb" d="M 225.316406 16.023438 C 225.316406 16.226562 225.242188 16.40625 225.097656 16.550781 C 224.949219 16.695312 224.773438 16.769531 224.566406 16.769531 C 224.363281 16.769531 224.183594 16.695312 224.039062 16.550781 C 223.894531 16.40625 223.820312 16.226562 223.820312 16.023438 C 223.820312 15.816406 223.894531 15.636719 224.039062 15.492188 C 224.183594 15.347656 224.363281 15.273438 224.566406 15.273438 C 224.773438 15.273438 224.949219 15.347656 225.097656 15.492188 C 225.242188 15.636719 225.316406 15.816406 225.316406 16.023438 Z M 225.316406 16.023438 " fill-opacity="1" fill-rule="nonzero"/><path fill="#5e17eb" d="M 231.472656 16.023438 C 231.472656 16.238281 231.394531 16.421875 231.242188 16.574219 C 231.089844 16.726562 230.90625 16.804688 230.691406 16.804688 C 230.472656 16.804688 230.289062 16.726562 230.136719 16.574219 C 229.984375 16.421875 229.90625 16.238281 229.90625 16.023438 C 229.90625 15.804688 229.984375 15.621094 230.136719 15.46875 C 230.289062 15.316406 230.472656 15.238281 230.691406 15.238281 C 230.90625 15.238281 231.089844 15.316406 231.242188 15.46875 C 231.394531 15.621094 231.472656 15.804688 231.472656 16.023438 Z M 231.472656 16.023438 " fill-opacity="1" fill-rule="nonzero"/><path fill="#5e17eb" d="M 237.617188 16.023438 C 237.617188 16.242188 237.539062 16.433594 237.382812 16.589844 C 237.222656 16.746094 237.035156 16.828125 236.8125 16.828125 C 236.589844 16.828125 236.398438 16.746094 236.242188 16.589844 C 236.085938 16.433594 236.007812 16.242188 236.007812 16.023438 C 236.007812 15.800781 236.085938 15.609375 236.242188 15.453125 C 236.398438 15.296875 236.589844 15.214844 236.8125 15.214844 C 237.035156 15.214844 237.222656 15.296875 237.382812 15.453125 C 237.539062 15.609375 237.617188 15.800781 237.617188 16.023438 Z M 237.617188 16.023438 " fill-opacity="1" fill-rule="nonzero"/><path fill="#5e17eb" d="M 243.761719 16.023438 C 243.761719 16.253906 243.679688 16.449219 243.515625 16.613281 C 243.351562 16.777344 243.152344 16.859375 242.921875 16.859375 C 242.691406 16.859375 242.492188 16.777344 242.328125 16.613281 C 242.164062 16.449219 242.082031 16.253906 242.082031 16.023438 C 242.082031 15.789062 242.164062 15.59375 242.328125 15.429688 C 242.492188 15.265625 242.691406 15.183594 242.921875 15.183594 C 243.152344 15.183594 243.351562 15.265625 243.515625 15.429688 C 243.679688 15.59375 243.761719 15.789062 243.761719 16.023438 Z M 243.761719 16.023438 " fill-opacity="1" fill-rule="nonzero"/><path fill="#5e17eb" d="M 249.917969 16.023438 C 249.917969 16.261719 249.832031 16.46875 249.660156 16.640625 C 249.492188 16.808594 249.285156 16.894531 249.042969 16.894531 C 248.804688 16.894531 248.597656 16.808594 248.425781 16.640625 C 248.257812 16.46875 248.171875 16.261719 248.171875 16.023438 C 248.171875 15.78125 248.257812 15.574219 248.425781 15.402344 C 248.597656 15.234375 248.804688 15.148438 249.042969 15.148438 C 249.285156 15.148438 249.492188 15.234375 249.660156 15.402344 C 249.832031 15.574219 249.917969 15.78125 249.917969 16.023438 Z M 249.917969 16.023438 " fill-opacity="1" fill-rule="nonzero"/><path fill="#5e17eb" d="M 277.058594 16.023438 C 280.945312 14.761719 281.964844 13.742188 283.222656 9.855469 C 284.484375 13.742188 285.503906 14.761719 289.390625 16.023438 C 285.503906 17.28125 284.484375 18.300781 283.222656 22.1875 C 281.964844 18.300781 280.945312 17.28125 277.058594 16.023438 Z M 277.058594 16.023438 " fill-opacity="1" fill-rule="nonzero"/><path fill="#5e17eb" d="M 270.777344 16.023438 C 270.777344 16.367188 270.710938 16.695312 270.578125 17.015625 C 270.445312 17.332031 270.257812 17.613281 270.015625 17.855469 C 269.773438 18.101562 269.492188 18.289062 269.171875 18.421875 C 268.855469 18.550781 268.523438 18.617188 268.179688 18.617188 C 267.835938 18.617188 267.503906 18.550781 267.1875 18.421875 C 266.867188 18.289062 266.589844 18.101562 266.34375 17.855469 C 266.101562 17.613281 265.914062 17.332031 265.78125 17.015625 C 265.648438 16.695312 265.585938 16.367188 265.585938 16.023438 C 265.585938 15.675781 265.648438 15.347656 265.78125 15.027344 C 265.914062 14.710938 266.101562 14.429688 266.34375 14.1875 C 266.589844 13.941406 266.867188 13.753906 267.1875 13.621094 C 267.503906 13.492188 267.835938 13.425781 268.179688 13.425781 C 268.523438 13.425781 268.855469 13.492188 269.171875 13.621094 C 269.492188 13.753906 269.773438 13.941406 270.015625 14.1875 C 270.257812 14.429688 270.445312 14.710938 270.578125 15.027344 C 270.710938 15.347656 270.777344 15.675781 270.777344 16.023438 Z M 270.777344 16.023438 " fill-opacity="1" fill-rule="nonzero"/><path fill="#5e17eb" d="M 260.378906 16.023438 C 260.378906 16.367188 260.316406 16.695312 260.183594 17.015625 C 260.050781 17.332031 259.863281 17.613281 259.621094 17.855469 C 259.375 18.101562 259.097656 18.289062 258.777344 18.421875 C 258.460938 18.550781 258.128906 18.617188 257.785156 18.617188 C 257.441406 18.617188 257.109375 18.550781 256.792969 18.421875 C 256.472656 18.289062 256.191406 18.101562 255.949219 17.855469 C 255.707031 17.613281 255.519531 17.332031 255.386719 17.015625 C 255.253906 16.695312 255.1875 16.367188 255.1875 16.023438 C 255.1875 15.675781 255.253906 15.347656 255.386719 15.027344 C 255.519531 14.710938 255.707031 14.429688 255.949219 14.1875 C 256.191406 13.941406 256.472656 13.753906 256.792969 13.621094 C 257.109375 13.492188 257.441406 13.425781 257.785156 13.425781 C 258.128906 13.425781 258.460938 13.492188 258.777344 13.621094 C 259.097656 13.753906 259.375 13.941406 259.621094 14.1875 C 259.863281 14.429688 260.050781 14.710938 260.183594 15.027344 C 260.316406 15.347656 260.378906 15.675781 260.378906 16.023438 Z M 260.378906 16.023438 " fill-opacity="1" fill-rule="nonzero"/><path fill="#5e17eb" d="M 62.296875 16.023438 C 58.40625 17.28125 57.386719 18.300781 56.128906 22.1875 C 54.871094 18.300781 53.847656 17.28125 49.960938 16.023438 C 53.847656 14.761719 54.871094 13.742188 56.128906 9.855469 C 57.386719 13.742188 58.40625 14.761719 62.296875 16.023438 Z M 62.296875 16.023438 " fill-opacity="1" fill-rule="nonzero"/><path fill="#5e17eb" d="M 73.769531 16.023438 C 73.769531 16.367188 73.703125 16.695312 73.570312 17.015625 C 73.4375 17.332031 73.25 17.613281 73.007812 17.855469 C 72.765625 18.101562 72.484375 18.289062 72.164062 18.421875 C 71.847656 18.550781 71.515625 18.617188 71.171875 18.617188 C 70.828125 18.617188 70.496094 18.550781 70.179688 18.421875 C 69.859375 18.289062 69.578125 18.101562 69.335938 17.855469 C 69.09375 17.613281 68.90625 17.332031 68.773438 17.015625 C 68.640625 16.695312 68.574219 16.367188 68.574219 16.023438 C 68.574219 15.675781 68.640625 15.347656 68.773438 15.027344 C 68.90625 14.710938 69.09375 14.429688 69.335938 14.1875 C 69.578125 13.941406 69.859375 13.753906 70.179688 13.621094 C 70.496094 13.492188 70.828125 13.425781 71.171875 13.425781 C 71.515625 13.425781 71.847656 13.492188 72.164062 13.621094 C 72.484375 13.753906 72.765625 13.941406 73.007812 14.1875 C 73.25 14.429688 73.4375 14.710938 73.570312 15.027344 C 73.703125 15.347656 73.769531 15.675781 73.769531 16.023438 Z M 73.769531 16.023438 " fill-opacity="1" fill-rule="nonzero"/><path fill="#5e17eb" d="M 84.164062 16.023438 C 84.164062 16.367188 84.097656 16.695312 83.964844 17.015625 C 83.835938 17.332031 83.648438 17.613281 83.402344 17.855469 C 83.160156 18.101562 82.878906 18.289062 82.5625 18.421875 C 82.242188 18.550781 81.910156 18.617188 81.566406 18.617188 C 81.222656 18.617188 80.890625 18.550781 80.574219 18.421875 C 80.253906 18.289062 79.976562 18.101562 79.730469 17.855469 C 79.488281 17.613281 79.300781 17.332031 79.167969 17.015625 C 79.039062 16.695312 78.972656 16.367188 78.972656 16.023438 C 78.972656 15.675781 79.039062 15.347656 79.167969 15.027344 C 79.300781 14.710938 79.488281 14.429688 79.730469 14.1875 C 79.976562 13.941406 80.253906 13.753906 80.574219 13.621094 C 80.890625 13.492188 81.222656 13.425781 81.566406 13.425781 C 81.910156 13.425781 82.242188 13.492188 82.5625 13.621094 C 82.878906 13.753906 83.160156 13.941406 83.402344 14.1875 C 83.648438 14.429688 83.835938 14.710938 83.964844 15.027344 C 84.097656 15.347656 84.164062 15.675781 84.164062 16.023438 Z M 84.164062 16.023438 " fill-opacity="1" fill-rule="nonzero"/><path fill="#5e17eb" d="M 57 49.871094 C 57 50.113281 56.914062 50.320312 56.746094 50.488281 C 56.574219 50.660156 56.367188 50.746094 56.128906 50.746094 C 55.886719 50.746094 55.679688 50.660156 55.511719 50.488281 C 55.339844 50.320312 55.253906 50.113281 55.253906 49.871094 C 55.253906 49.632812 55.339844 49.425781 55.511719 49.253906 C 55.679688 49.085938 55.886719 49 56.128906 49 C 56.367188 49 56.574219 49.085938 56.746094 49.253906 C 56.914062 49.425781 57 49.632812 57 49.871094 Z M 57 49.871094 " fill-opacity="1" fill-rule="nonzero"/><path fill="#5e17eb" d="M 56.964844 55.984375 C 56.964844 56.214844 56.886719 56.414062 56.722656 56.578125 C 56.558594 56.738281 56.359375 56.820312 56.128906 56.820312 C 55.894531 56.820312 55.699219 56.738281 55.535156 56.578125 C 55.371094 56.414062 55.289062 56.214844 55.289062 55.984375 C 55.289062 55.75 55.371094 55.554688 55.535156 55.390625 C 55.699219 55.226562 55.894531 55.144531 56.128906 55.144531 C 56.359375 55.144531 56.558594 55.226562 56.722656 55.390625 C 56.886719 55.554688 56.964844 55.75 56.964844 55.984375 Z M 56.964844 55.984375 " fill-opacity="1" fill-rule="nonzero"/><path fill="#5e17eb" d="M 56.933594 62.105469 C 56.933594 62.328125 56.855469 62.515625 56.695312 62.675781 C 56.539062 62.832031 56.351562 62.910156 56.128906 62.910156 C 55.90625 62.910156 55.714844 62.832031 55.558594 62.675781 C 55.402344 62.515625 55.324219 62.328125 55.324219 62.105469 C 55.324219 61.882812 55.402344 61.691406 55.558594 61.535156 C 55.714844 61.378906 55.90625 61.300781 56.128906 61.300781 C 56.351562 61.300781 56.539062 61.378906 56.695312 61.535156 C 56.855469 61.691406 56.933594 61.882812 56.933594 62.105469 Z M 56.933594 62.105469 " fill-opacity="1" fill-rule="nonzero"/><path fill="#5e17eb" d="M 56.910156 68.226562 C 56.910156 68.441406 56.832031 68.628906 56.679688 68.78125 C 56.527344 68.933594 56.34375 69.007812 56.128906 69.007812 C 55.910156 69.007812 55.726562 68.933594 55.574219 68.78125 C 55.421875 68.628906 55.34375 68.441406 55.34375 68.226562 C 55.34375 68.011719 55.421875 67.828125 55.574219 67.675781 C 55.726562 67.519531 55.910156 67.445312 56.128906 67.445312 C 56.34375 67.445312 56.527344 67.519531 56.679688 67.675781 C 56.832031 67.828125 56.910156 68.011719 56.910156 68.226562 Z M 56.910156 68.226562 " fill-opacity="1" fill-rule="nonzero"/><path fill="#5e17eb" d="M 56.875 74.335938 C 56.875 74.542969 56.804688 74.71875 56.65625 74.867188 C 56.511719 75.011719 56.335938 75.085938 56.128906 75.085938 C 55.921875 75.085938 55.746094 75.011719 55.597656 74.867188 C 55.453125 74.71875 55.378906 74.542969 55.378906 74.335938 C 55.378906 74.128906 55.453125 73.953125 55.597656 73.808594 C 55.746094 73.664062 55.921875 73.589844 56.128906 73.589844 C 56.335938 73.589844 56.511719 73.664062 56.65625 73.808594 C 56.804688 73.953125 56.875 74.128906 56.875 74.335938 Z M 56.875 74.335938 " fill-opacity="1" fill-rule="nonzero"/><path fill="#5e17eb" d="M 56.851562 80.460938 C 56.851562 80.660156 56.78125 80.832031 56.640625 80.972656 C 56.5 81.113281 56.328125 81.183594 56.128906 81.183594 C 55.925781 81.183594 55.757812 81.113281 55.613281 80.972656 C 55.472656 80.832031 55.402344 80.660156 55.402344 80.460938 C 55.402344 80.257812 55.472656 80.085938 55.613281 79.945312 C 55.757812 79.804688 55.925781 79.734375 56.128906 79.734375 C 56.328125 79.734375 56.5 79.804688 56.640625 79.945312 C 56.78125 80.085938 56.851562 80.257812 56.851562 80.460938 Z M 56.851562 80.460938 " fill-opacity="1" fill-rule="nonzero"/><path fill="#5e17eb" d="M 56.832031 86.582031 C 56.832031 86.773438 56.761719 86.941406 56.625 87.078125 C 56.488281 87.214844 56.320312 87.285156 56.128906 87.285156 C 55.933594 87.285156 55.769531 87.214844 55.632812 87.078125 C 55.492188 86.941406 55.425781 86.773438 55.425781 86.582031 C 55.425781 86.386719 55.492188 86.222656 55.632812 86.082031 C 55.769531 85.945312 55.933594 85.878906 56.128906 85.878906 C 56.320312 85.878906 56.488281 85.945312 56.625 86.082031 C 56.761719 86.222656 56.832031 86.386719 56.832031 86.582031 Z M 56.832031 86.582031 " fill-opacity="1" fill-rule="nonzero"/><path fill="#5e17eb" d="M 56.808594 92.691406 C 56.808594 92.878906 56.742188 93.039062 56.609375 93.171875 C 56.476562 93.304688 56.316406 93.371094 56.128906 93.371094 C 55.941406 93.371094 55.78125 93.304688 55.648438 93.171875 C 55.515625 93.039062 55.449219 92.878906 55.449219 92.691406 C 55.449219 92.503906 55.515625 92.34375 55.648438 92.210938 C 55.78125 92.078125 55.941406 92.011719 56.128906 92.011719 C 56.316406 92.011719 56.476562 92.078125 56.609375 92.210938 C 56.742188 92.34375 56.808594 92.503906 56.808594 92.691406 Z M 56.808594 92.691406 " fill-opacity="1" fill-rule="nonzero"/><path fill="#5e17eb" d="M 56.785156 98.8125 C 56.785156 98.996094 56.722656 99.148438 56.59375 99.277344 C 56.464844 99.40625 56.308594 99.472656 56.128906 99.472656 C 55.945312 99.472656 55.792969 99.40625 55.664062 99.277344 C 55.535156 99.148438 55.46875 98.996094 55.46875 98.8125 C 55.46875 98.632812 55.535156 98.476562 55.664062 98.347656 C 55.792969 98.21875 55.945312 98.15625 56.128906 98.15625 C 56.308594 98.15625 56.464844 98.21875 56.59375 98.347656 C 56.722656 98.476562 56.785156 98.632812 56.785156 98.8125 Z M 56.785156 98.8125 " fill-opacity="1" fill-rule="nonzero"/><path fill="#5e17eb" d="M 56.773438 104.933594 C 56.773438 105.113281 56.710938 105.265625 56.585938 105.390625 C 56.457031 105.519531 56.304688 105.582031 56.128906 105.582031 C 55.949219 105.582031 55.796875 105.519531 55.671875 105.390625 C 55.542969 105.265625 55.480469 105.113281 55.480469 104.933594 C 55.480469 104.757812 55.542969 104.605469 55.671875 104.476562 C 55.796875 104.351562 55.949219 104.289062 56.128906 104.289062 C 56.304688 104.289062 56.457031 104.351562 56.585938 104.476562 C 56.710938 104.605469 56.773438 104.757812 56.773438 104.933594 Z M 56.773438 104.933594 " fill-opacity="1" fill-rule="nonzero"/><path fill="#5e17eb" d="M 56.761719 111.046875 C 56.761719 111.222656 56.699219 111.371094 56.578125 111.496094 C 56.453125 111.617188 56.304688 111.679688 56.128906 111.679688 C 55.953125 111.679688 55.804688 111.617188 55.679688 111.496094 C 55.554688 111.371094 55.492188 111.222656 55.492188 111.046875 C 55.492188 110.871094 55.554688 110.71875 55.679688 110.597656 C 55.804688 110.472656 55.953125 110.410156 56.128906 110.410156 C 56.304688 110.410156 56.453125 110.472656 56.578125 110.597656 C 56.699219 110.71875 56.761719 110.871094 56.761719 111.046875 Z M 56.761719 111.046875 " fill-opacity="1" fill-rule="nonzero"/><path fill="#5e17eb" d="M 56.75 117.167969 C 56.75 117.339844 56.691406 117.488281 56.570312 117.609375 C 56.445312 117.730469 56.300781 117.789062 56.128906 117.789062 C 55.957031 117.789062 55.808594 117.730469 55.6875 117.609375 C 55.566406 117.488281 55.503906 117.339844 55.503906 117.167969 C 55.503906 116.996094 55.566406 116.847656 55.6875 116.726562 C 55.808594 116.605469 55.957031 116.542969 56.128906 116.542969 C 56.300781 116.542969 56.445312 116.605469 56.570312 116.726562 C 56.691406 116.847656 56.75 116.996094 56.75 117.167969 Z M 56.75 117.167969 " fill-opacity="1" fill-rule="nonzero"/><path fill="#5e17eb" d="M 56.75 123.289062 C 56.75 123.460938 56.691406 123.609375 56.570312 123.730469 C 56.445312 123.851562 56.300781 123.914062 56.128906 123.914062 C 55.957031 123.914062 55.808594 123.851562 55.6875 123.730469 C 55.566406 123.609375 55.503906 123.460938 55.503906 123.289062 C 55.503906 123.117188 55.566406 122.96875 55.6875 122.847656 C 55.808594 122.726562 55.957031 122.664062 56.128906 122.664062 C 56.300781 122.664062 56.445312 122.726562 56.570312 122.847656 C 56.691406 122.96875 56.75 123.117188 56.75 123.289062 Z M 56.75 123.289062 " fill-opacity="1" fill-rule="nonzero"/><path fill="#5e17eb" d="M 56.738281 129.398438 C 56.738281 129.570312 56.679688 129.714844 56.5625 129.832031 C 56.441406 129.953125 56.296875 130.011719 56.128906 130.011719 C 55.957031 130.011719 55.816406 129.953125 55.695312 129.832031 C 55.574219 129.714844 55.515625 129.570312 55.515625 129.398438 C 55.515625 129.230469 55.574219 129.085938 55.695312 128.964844 C 55.816406 128.847656 55.957031 128.789062 56.128906 128.789062 C 56.296875 128.789062 56.441406 128.847656 56.5625 128.964844 C 56.679688 129.085938 56.738281 129.230469 56.738281 129.398438 Z M 56.738281 129.398438 " fill-opacity="1" fill-rule="nonzero"/><path fill="#5e17eb" d="M 56.75 135.519531 C 56.75 135.695312 56.691406 135.839844 56.570312 135.960938 C 56.445312 136.085938 56.300781 136.144531 56.128906 136.144531 C 55.957031 136.144531 55.808594 136.085938 55.6875 135.960938 C 55.566406 135.839844 55.503906 135.695312 55.503906 135.519531 C 55.503906 135.347656 55.566406 135.203125 55.6875 135.082031 C 55.808594 134.957031 55.957031 134.898438 56.128906 134.898438 C 56.300781 134.898438 56.445312 134.957031 56.570312 135.082031 C 56.691406 135.203125 56.75 135.347656 56.75 135.519531 Z M 56.75 135.519531 " fill-opacity="1" fill-rule="nonzero"/><path fill="#5e17eb" d="M 56.75 141.644531 C 56.75 141.816406 56.691406 141.960938 56.570312 142.085938 C 56.445312 142.207031 56.300781 142.265625 56.128906 142.265625 C 55.957031 142.265625 55.808594 142.207031 55.6875 142.085938 C 55.566406 141.960938 55.503906 141.816406 55.503906 141.644531 C 55.503906 141.472656 55.566406 141.324219 55.6875 141.203125 C 55.808594 141.082031 55.957031 141.019531 56.128906 141.019531 C 56.300781 141.019531 56.445312 141.082031 56.570312 141.203125 C 56.691406 141.324219 56.75 141.472656 56.75 141.644531 Z M 56.75 141.644531 " fill-opacity="1" fill-rule="nonzero"/><path fill="#5e17eb" d="M 56.761719 147.753906 C 56.761719 147.929688 56.699219 148.078125 56.578125 148.203125 C 56.453125 148.328125 56.304688 148.386719 56.128906 148.386719 C 55.953125 148.386719 55.804688 148.328125 55.679688 148.203125 C 55.554688 148.078125 55.492188 147.929688 55.492188 147.753906 C 55.492188 147.578125 55.554688 147.429688 55.679688 147.304688 C 55.804688 147.179688 55.953125 147.117188 56.128906 147.117188 C 56.304688 147.117188 56.453125 147.179688 56.578125 147.304688 C 56.699219 147.429688 56.761719 147.578125 56.761719 147.753906 Z M 56.761719 147.753906 " fill-opacity="1" fill-rule="nonzero"/><path fill="#5e17eb" d="M 56.773438 153.875 C 56.773438 154.054688 56.710938 154.207031 56.585938 154.332031 C 56.457031 154.457031 56.304688 154.523438 56.128906 154.523438 C 55.949219 154.523438 55.796875 154.457031 55.671875 154.332031 C 55.542969 154.207031 55.480469 154.054688 55.480469 153.875 C 55.480469 153.695312 55.542969 153.542969 55.671875 153.417969 C 55.796875 153.292969 55.949219 153.230469 56.128906 153.230469 C 56.304688 153.230469 56.457031 153.292969 56.585938 153.417969 C 56.710938 153.542969 56.773438 153.695312 56.773438 153.875 Z M 56.773438 153.875 " fill-opacity="1" fill-rule="nonzero"/><path fill="#5e17eb" d="M 56.785156 159.996094 C 56.785156 160.179688 56.722656 160.332031 56.59375 160.460938 C 56.464844 160.589844 56.308594 160.65625 56.128906 160.65625 C 55.945312 160.65625 55.792969 160.589844 55.664062 160.460938 C 55.535156 160.332031 55.46875 160.179688 55.46875 159.996094 C 55.46875 159.816406 55.535156 159.660156 55.664062 159.53125 C 55.792969 159.402344 55.945312 159.339844 56.128906 159.339844 C 56.308594 159.339844 56.464844 159.402344 56.59375 159.53125 C 56.722656 159.660156 56.785156 159.816406 56.785156 159.996094 Z M 56.785156 159.996094 " fill-opacity="1" fill-rule="nonzero"/><path fill="#5e17eb" d="M 56.808594 166.109375 C 56.808594 166.296875 56.742188 166.457031 56.609375 166.589844 C 56.476562 166.722656 56.316406 166.789062 56.128906 166.789062 C 55.941406 166.789062 55.78125 166.722656 55.648438 166.589844 C 55.515625 166.457031 55.449219 166.296875 55.449219 166.109375 C 55.449219 165.917969 55.515625 165.757812 55.648438 165.625 C 55.78125 165.492188 55.941406 165.425781 56.128906 165.425781 C 56.316406 165.425781 56.476562 165.492188 56.609375 165.625 C 56.742188 165.757812 56.808594 165.917969 56.808594 166.109375 Z M 56.808594 166.109375 " fill-opacity="1" fill-rule="nonzero"/><path fill="#5e17eb" d="M 56.832031 172.230469 C 56.832031 172.421875 56.761719 172.589844 56.625 172.726562 C 56.488281 172.863281 56.320312 172.933594 56.128906 172.933594 C 55.933594 172.933594 55.769531 172.863281 55.632812 172.726562 C 55.492188 172.589844 55.425781 172.421875 55.425781 172.230469 C 55.425781 172.035156 55.492188 171.871094 55.632812 171.734375 C 55.769531 171.59375 55.933594 171.527344 56.128906 171.527344 C 56.320312 171.527344 56.488281 171.59375 56.625 171.734375 C 56.761719 171.871094 56.832031 172.035156 56.832031 172.230469 Z M 56.832031 172.230469 " fill-opacity="1" fill-rule="nonzero"/><path fill="#5e17eb" d="M 56.851562 178.351562 C 56.851562 178.550781 56.78125 178.722656 56.640625 178.863281 C 56.5 179.007812 56.328125 179.078125 56.128906 179.078125 C 55.925781 179.078125 55.757812 179.007812 55.613281 178.863281 C 55.472656 178.722656 55.402344 178.550781 55.402344 178.351562 C 55.402344 178.152344 55.472656 177.980469 55.613281 177.839844 C 55.757812 177.695312 55.925781 177.625 56.128906 177.625 C 56.328125 177.625 56.5 177.695312 56.640625 177.839844 C 56.78125 177.980469 56.851562 178.152344 56.851562 178.351562 Z M 56.851562 178.351562 " fill-opacity="1" fill-rule="nonzero"/><path fill="#5e17eb" d="M 56.875 184.460938 C 56.875 184.667969 56.804688 184.84375 56.65625 184.992188 C 56.511719 185.136719 56.335938 185.210938 56.128906 185.210938 C 55.921875 185.210938 55.746094 185.136719 55.597656 184.992188 C 55.453125 184.84375 55.378906 184.667969 55.378906 184.460938 C 55.378906 184.253906 55.453125 184.078125 55.597656 183.933594 C 55.746094 183.785156 55.921875 183.714844 56.128906 183.714844 C 56.335938 183.714844 56.511719 183.785156 56.65625 183.933594 C 56.804688 184.078125 56.875 184.253906 56.875 184.460938 Z M 56.875 184.460938 " fill-opacity="1" fill-rule="nonzero"/><path fill="#5e17eb" d="M 56.910156 190.582031 C 56.910156 190.800781 56.832031 190.984375 56.679688 191.136719 C 56.527344 191.289062 56.34375 191.367188 56.128906 191.367188 C 55.910156 191.367188 55.726562 191.289062 55.574219 191.136719 C 55.421875 190.984375 55.34375 190.800781 55.34375 190.582031 C 55.34375 190.367188 55.421875 190.183594 55.574219 190.03125 C 55.726562 189.878906 55.910156 189.800781 56.128906 189.800781 C 56.34375 189.800781 56.527344 189.878906 56.679688 190.03125 C 56.832031 190.183594 56.910156 190.367188 56.910156 190.582031 Z M 56.910156 190.582031 " fill-opacity="1" fill-rule="nonzero"/><path fill="#5e17eb" d="M 56.933594 196.707031 C 56.933594 196.925781 56.855469 197.117188 56.695312 197.273438 C 56.539062 197.433594 56.351562 197.511719 56.128906 197.511719 C 55.90625 197.511719 55.714844 197.433594 55.558594 197.273438 C 55.402344 197.117188 55.324219 196.925781 55.324219 196.707031 C 55.324219 196.484375 55.402344 196.292969 55.558594 196.136719 C 55.714844 195.980469 55.90625 195.902344 56.128906 195.902344 C 56.351562 195.902344 56.539062 195.980469 56.695312 196.136719 C 56.855469 196.292969 56.933594 196.484375 56.933594 196.707031 Z M 56.933594 196.707031 " fill-opacity="1" fill-rule="nonzero"/><path fill="#5e17eb" d="M 56.964844 202.816406 C 56.964844 203.046875 56.886719 203.246094 56.722656 203.410156 C 56.558594 203.574219 56.359375 203.65625 56.128906 203.65625 C 55.894531 203.65625 55.699219 203.574219 55.535156 203.410156 C 55.371094 203.246094 55.289062 203.046875 55.289062 202.816406 C 55.289062 202.585938 55.371094 202.386719 55.535156 202.222656 C 55.699219 202.058594 55.894531 201.976562 56.128906 201.976562 C 56.359375 201.976562 56.558594 202.058594 56.722656 202.222656 C 56.886719 202.386719 56.964844 202.585938 56.964844 202.816406 Z M 56.964844 202.816406 " fill-opacity="1" fill-rule="nonzero"/><path fill="#5e17eb" d="M 57 208.9375 C 57 209.179688 56.914062 209.382812 56.746094 209.554688 C 56.574219 209.726562 56.367188 209.8125 56.128906 209.8125 C 55.886719 209.8125 55.679688 209.726562 55.511719 209.554688 C 55.339844 209.382812 55.253906 209.179688 55.253906 208.9375 C 55.253906 208.695312 55.339844 208.492188 55.511719 208.320312 C 55.679688 208.148438 55.886719 208.066406 56.128906 208.066406 C 56.367188 208.066406 56.574219 208.148438 56.746094 208.320312 C 56.914062 208.492188 57 208.695312 57 208.9375 Z M 57 208.9375 " fill-opacity="1" fill-rule="nonzero"/><path fill="#5e17eb" d="M 56.128906 236.949219 C 57.386719 240.839844 58.40625 241.859375 62.296875 243.117188 C 58.40625 244.375 57.386719 245.398438 56.128906 249.285156 C 54.871094 245.398438 53.847656 244.375 49.960938 243.117188 C 53.847656 241.859375 54.871094 240.839844 56.128906 236.949219 Z M 56.128906 236.949219 " fill-opacity="1" fill-rule="nonzero"/><path fill="#5e17eb" d="M 58.722656 228.085938 C 58.722656 228.429688 58.65625 228.761719 58.527344 229.078125 C 58.394531 229.398438 58.207031 229.675781 57.964844 229.921875 C 57.71875 230.164062 57.4375 230.351562 57.121094 230.484375 C 56.804688 230.617188 56.472656 230.679688 56.128906 230.679688 C 55.785156 230.679688 55.453125 230.617188 55.132812 230.484375 C 54.816406 230.351562 54.535156 230.164062 54.292969 229.921875 C 54.046875 229.675781 53.859375 229.398438 53.730469 229.078125 C 53.597656 228.761719 53.53125 228.429688 53.53125 228.085938 C 53.53125 227.742188 53.597656 227.410156 53.730469 227.09375 C 53.859375 226.773438 54.046875 226.492188 54.292969 226.25 C 54.535156 226.007812 54.816406 225.820312 55.132812 225.6875 C 55.453125 225.554688 55.785156 225.488281 56.128906 225.488281 C 56.472656 225.488281 56.804688 225.554688 57.121094 225.6875 C 57.4375 225.820312 57.71875 226.007812 57.964844 226.25 C 58.207031 226.492188 58.394531 226.773438 58.527344 227.09375 C 58.65625 227.410156 58.722656 227.742188 58.722656 228.085938 Z M 58.722656 228.085938 " fill-opacity="1" fill-rule="nonzero"/><path fill="#5e17eb" d="M 58.722656 217.679688 C 58.722656 218.023438 58.65625 218.355469 58.527344 218.671875 C 58.394531 218.988281 58.207031 219.269531 57.964844 219.515625 C 57.71875 219.757812 57.4375 219.945312 57.121094 220.078125 C 56.804688 220.207031 56.472656 220.273438 56.128906 220.273438 C 55.785156 220.273438 55.453125 220.207031 55.132812 220.078125 C 54.816406 219.945312 54.535156 219.757812 54.292969 219.515625 C 54.046875 219.269531 53.859375 218.988281 53.730469 218.671875 C 53.597656 218.355469 53.53125 218.023438 53.53125 217.679688 C 53.53125 217.335938 53.597656 217.003906 53.730469 216.683594 C 53.859375 216.367188 54.046875 216.085938 54.292969 215.84375 C 54.535156 215.597656 54.816406 215.410156 55.132812 215.28125 C 55.453125 215.148438 55.785156 215.082031 56.128906 215.082031 C 56.472656 215.082031 56.804688 215.148438 57.121094 215.28125 C 57.4375 215.410156 57.71875 215.597656 57.964844 215.84375 C 58.207031 216.085938 58.394531 216.367188 58.527344 216.683594 C 58.65625 217.003906 58.722656 217.335938 58.722656 217.679688 Z M 58.722656 217.679688 " fill-opacity="1" fill-rule="nonzero"/><path fill="#5e17eb" d="M 56.128906 22.1875 C 54.871094 18.300781 53.847656 17.28125 49.960938 16.023438 C 53.847656 14.761719 54.871094 13.742188 56.128906 9.855469 C 57.386719 13.742188 58.40625 14.761719 62.296875 16.023438 C 58.40625 17.28125 57.386719 18.300781 56.128906 22.1875 Z M 56.128906 22.1875 " fill-opacity="1" fill-rule="nonzero"/><path fill="#5e17eb" d="M 58.722656 31.066406 C 58.722656 31.410156 58.65625 31.742188 58.527344 32.058594 C 58.394531 32.375 58.207031 32.65625 57.964844 32.902344 C 57.71875 33.144531 57.4375 33.332031 57.121094 33.464844 C 56.804688 33.59375 56.472656 33.660156 56.128906 33.660156 C 55.785156 33.660156 55.453125 33.59375 55.132812 33.464844 C 54.816406 33.332031 54.535156 33.144531 54.292969 32.902344 C 54.046875 32.65625 53.859375 32.375 53.730469 32.058594 C 53.597656 31.742188 53.53125 31.410156 53.53125 31.066406 C 53.53125 30.722656 53.597656 30.390625 53.730469 30.070312 C 53.859375 29.753906 54.046875 29.472656 54.292969 29.230469 C 54.535156 28.984375 54.816406 28.796875 55.132812 28.667969 C 55.453125 28.535156 55.785156 28.46875 56.128906 28.46875 C 56.472656 28.46875 56.804688 28.535156 57.121094 28.667969 C 57.4375 28.796875 57.71875 28.984375 57.964844 29.230469 C 58.207031 29.472656 58.394531 29.753906 58.527344 30.070312 C 58.65625 30.390625 58.722656 30.722656 58.722656 31.066406 Z M 58.722656 31.066406 " fill-opacity="1" fill-rule="nonzero"/><path fill="#5e17eb" d="M 58.722656 41.460938 C 58.722656 41.804688 58.65625 42.136719 58.527344 42.453125 C 58.394531 42.773438 58.207031 43.054688 57.964844 43.296875 C 57.71875 43.539062 57.4375 43.726562 57.121094 43.859375 C 56.804688 43.992188 56.472656 44.058594 56.128906 44.058594 C 55.785156 44.058594 55.453125 43.992188 55.132812 43.859375 C 54.816406 43.726562 54.535156 43.539062 54.292969 43.296875 C 54.046875 43.054688 53.859375 42.773438 53.730469 42.453125 C 53.597656 42.136719 53.53125 41.804688 53.53125 41.460938 C 53.53125 41.117188 53.597656 40.785156 53.730469 40.46875 C 53.859375 40.148438 54.046875 39.867188 54.292969 39.625 C 54.535156 39.382812 54.816406 39.195312 55.132812 39.0625 C 55.453125 38.929688 55.785156 38.863281 56.128906 38.863281 C 56.472656 38.863281 56.804688 38.929688 57.121094 39.0625 C 57.4375 39.195312 57.71875 39.382812 57.964844 39.625 C 58.207031 39.867188 58.394531 40.148438 58.527344 40.46875 C 58.65625 40.785156 58.722656 41.117188 58.722656 41.460938 Z M 58.722656 41.460938 " fill-opacity="1" fill-rule="nonzero"/><path fill="#5e17eb" d="M 284.097656 49.871094 C 284.097656 50.113281 284.011719 50.320312 283.839844 50.488281 C 283.671875 50.660156 283.464844 50.746094 283.222656 50.746094 C 282.984375 50.746094 282.777344 50.660156 282.605469 50.488281 C 282.4375 50.320312 282.351562 50.113281 282.351562 49.871094 C 282.351562 49.632812 282.4375 49.425781 282.605469 49.253906 C 282.777344 49.085938 282.984375 49 283.222656 49 C 283.464844 49 283.671875 49.085938 283.839844 49.253906 C 284.011719 49.425781 284.097656 49.632812 284.097656 49.871094 Z M 284.097656 49.871094 " fill-opacity="1" fill-rule="nonzero"/><path fill="#5e17eb" d="M 284.0625 55.984375 C 284.0625 56.214844 283.980469 56.414062 283.816406 56.578125 C 283.652344 56.738281 283.457031 56.820312 283.222656 56.820312 C 282.992188 56.820312 282.792969 56.738281 282.632812 56.578125 C 282.46875 56.414062 282.386719 56.214844 282.386719 55.984375 C 282.386719 55.75 282.46875 55.554688 282.632812 55.390625 C 282.792969 55.226562 282.992188 55.144531 283.222656 55.144531 C 283.457031 55.144531 283.652344 55.226562 283.816406 55.390625 C 283.980469 55.554688 284.0625 55.75 284.0625 55.984375 Z M 284.0625 55.984375 " fill-opacity="1" fill-rule="nonzero"/><path fill="#5e17eb" d="M 284.027344 62.105469 C 284.027344 62.328125 283.949219 62.515625 283.792969 62.675781 C 283.636719 62.832031 283.445312 62.910156 283.222656 62.910156 C 283 62.910156 282.8125 62.832031 282.65625 62.675781 C 282.496094 62.515625 282.417969 62.328125 282.417969 62.105469 C 282.417969 61.882812 282.496094 61.691406 282.65625 61.535156 C 282.8125 61.378906 283 61.300781 283.222656 61.300781 C 283.445312 61.300781 283.636719 61.378906 283.792969 61.535156 C 283.949219 61.691406 284.027344 61.882812 284.027344 62.105469 Z M 284.027344 62.105469 " fill-opacity="1" fill-rule="nonzero"/><path fill="#5e17eb" d="M 284.007812 68.226562 C 284.007812 68.441406 283.929688 68.628906 283.777344 68.78125 C 283.625 68.933594 283.441406 69.007812 283.222656 69.007812 C 283.007812 69.007812 282.824219 68.933594 282.671875 68.78125 C 282.519531 68.628906 282.441406 68.441406 282.441406 68.226562 C 282.441406 68.011719 282.519531 67.828125 282.671875 67.675781 C 282.824219 67.519531 283.007812 67.445312 283.222656 67.445312 C 283.441406 67.445312 283.625 67.519531 283.777344 67.675781 C 283.929688 67.828125 284.007812 68.011719 284.007812 68.226562 Z M 284.007812 68.226562 " fill-opacity="1" fill-rule="nonzero"/><path fill="#5e17eb" d="M 283.972656 74.335938 C 283.972656 74.542969 283.898438 74.71875 283.753906 74.867188 C 283.605469 75.011719 283.429688 75.085938 283.222656 75.085938 C 283.015625 75.085938 282.839844 75.011719 282.695312 74.867188 C 282.550781 74.71875 282.476562 74.542969 282.476562 74.335938 C 282.476562 74.128906 282.550781 73.953125 282.695312 73.808594 C 282.839844 73.664062 283.015625 73.589844 283.222656 73.589844 C 283.429688 73.589844 283.605469 73.664062 283.753906 73.808594 C 283.898438 73.953125 283.972656 74.128906 283.972656 74.335938 Z M 283.972656 74.335938 " fill-opacity="1" fill-rule="nonzero"/><path fill="#5e17eb" d="M 283.949219 80.460938 C 283.949219 80.660156 283.878906 80.832031 283.738281 80.972656 C 283.59375 81.113281 283.425781 81.183594 283.222656 81.183594 C 283.023438 81.183594 282.851562 81.113281 282.710938 80.972656 C 282.570312 80.832031 282.5 80.660156 282.5 80.460938 C 282.5 80.257812 282.570312 80.085938 282.710938 79.945312 C 282.851562 79.804688 283.023438 79.734375 283.222656 79.734375 C 283.425781 79.734375 283.59375 79.804688 283.738281 79.945312 C 283.878906 80.085938 283.949219 80.257812 283.949219 80.460938 Z M 283.949219 80.460938 " fill-opacity="1" fill-rule="nonzero"/><path fill="#5e17eb" d="M 283.925781 86.582031 C 283.925781 86.773438 283.859375 86.941406 283.722656 87.078125 C 283.582031 87.214844 283.417969 87.285156 283.222656 87.285156 C 283.03125 87.285156 282.863281 87.214844 282.726562 87.078125 C 282.589844 86.941406 282.519531 86.773438 282.519531 86.582031 C 282.519531 86.386719 282.589844 86.222656 282.726562 86.082031 C 282.863281 85.945312 283.03125 85.878906 283.222656 85.878906 C 283.417969 85.878906 283.582031 85.945312 283.722656 86.082031 C 283.859375 86.222656 283.925781 86.386719 283.925781 86.582031 Z M 283.925781 86.582031 " fill-opacity="1" fill-rule="nonzero"/><path fill="#5e17eb" d="M 283.90625 92.691406 C 283.90625 92.878906 283.839844 93.039062 283.707031 93.171875 C 283.570312 93.304688 283.410156 93.371094 283.222656 93.371094 C 283.035156 93.371094 282.875 93.304688 282.742188 93.171875 C 282.609375 93.039062 282.542969 92.878906 282.542969 92.691406 C 282.542969 92.503906 282.609375 92.34375 282.742188 92.210938 C 282.875 92.078125 283.035156 92.011719 283.222656 92.011719 C 283.410156 92.011719 283.570312 92.078125 283.703125 92.210938 C 283.839844 92.34375 283.90625 92.503906 283.90625 92.691406 Z M 283.90625 92.691406 " fill-opacity="1" fill-rule="nonzero"/><path fill="#5e17eb" d="M 283.882812 98.8125 C 283.882812 98.996094 283.816406 99.148438 283.6875 99.277344 C 283.5625 99.40625 283.40625 99.472656 283.222656 99.472656 C 283.042969 99.472656 282.886719 99.40625 282.757812 99.277344 C 282.628906 99.148438 282.566406 98.996094 282.566406 98.8125 C 282.566406 98.632812 282.628906 98.476562 282.757812 98.347656 C 282.886719 98.21875 283.042969 98.15625 283.222656 98.15625 C 283.40625 98.15625 283.5625 98.21875 283.6875 98.347656 C 283.816406 98.476562 283.882812 98.632812 283.882812 98.8125 Z M 283.882812 98.8125 " fill-opacity="1" fill-rule="nonzero"/><path fill="#5e17eb" d="M 283.871094 104.933594 C 283.871094 105.113281 283.808594 105.265625 283.679688 105.390625 C 283.554688 105.519531 283.402344 105.582031 283.222656 105.582031 C 283.046875 105.582031 282.894531 105.519531 282.765625 105.390625 C 282.640625 105.265625 282.578125 105.113281 282.578125 104.933594 C 282.578125 104.757812 282.640625 104.605469 282.765625 104.476562 C 282.894531 104.351562 283.046875 104.289062 283.222656 104.289062 C 283.402344 104.289062 283.554688 104.351562 283.679688 104.476562 C 283.808594 104.605469 283.871094 104.757812 283.871094 104.933594 Z M 283.871094 104.933594 " fill-opacity="1" fill-rule="nonzero"/><path fill="#5e17eb" d="M 283.859375 111.046875 C 283.859375 111.222656 283.796875 111.371094 283.671875 111.496094 C 283.550781 111.617188 283.398438 111.679688 283.222656 111.679688 C 283.046875 111.679688 282.898438 111.617188 282.773438 111.496094 C 282.652344 111.371094 282.589844 111.222656 282.589844 111.046875 C 282.589844 110.871094 282.652344 110.71875 282.773438 110.597656 C 282.898438 110.472656 283.046875 110.410156 283.222656 110.410156 C 283.398438 110.410156 283.550781 110.472656 283.671875 110.597656 C 283.796875 110.71875 283.859375 110.871094 283.859375 111.046875 Z M 283.859375 111.046875 " fill-opacity="1" fill-rule="nonzero"/><path fill="#5e17eb" d="M 283.847656 117.167969 C 283.847656 117.339844 283.785156 117.488281 283.664062 117.609375 C 283.542969 117.730469 283.394531 117.789062 283.222656 117.789062 C 283.050781 117.789062 282.90625 117.730469 282.785156 117.609375 C 282.660156 117.488281 282.601562 117.339844 282.601562 117.167969 C 282.601562 116.996094 282.660156 116.847656 282.785156 116.726562 C 282.90625 116.605469 283.050781 116.542969 283.222656 116.542969 C 283.394531 116.542969 283.542969 116.605469 283.664062 116.726562 C 283.785156 116.847656 283.847656 116.996094 283.847656 117.167969 Z M 283.847656 117.167969 " fill-opacity="1" fill-rule="nonzero"/><path fill="#5e17eb" d="M 283.847656 123.289062 C 283.847656 123.460938 283.785156 123.609375 283.664062 123.730469 C 283.542969 123.851562 283.394531 123.914062 283.222656 123.914062 C 283.050781 123.914062 282.90625 123.851562 282.785156 123.730469 C 282.660156 123.609375 282.601562 123.460938 282.601562 123.289062 C 282.601562 123.117188 282.660156 122.96875 282.785156 122.847656 C 282.90625 122.726562 283.050781 122.664062 283.222656 122.664062 C 283.394531 122.664062 283.542969 122.726562 283.664062 122.847656 C 283.785156 122.96875 283.847656 123.117188 283.847656 123.289062 Z M 283.847656 123.289062 " fill-opacity="1" fill-rule="nonzero"/><path fill="#5e17eb" d="M 283.835938 129.398438 C 283.835938 129.570312 283.777344 129.714844 283.65625 129.832031 C 283.539062 129.953125 283.394531 130.011719 283.222656 130.011719 C 283.054688 130.011719 282.910156 129.953125 282.792969 129.832031 C 282.671875 129.714844 282.613281 129.570312 282.613281 129.398438 C 282.613281 129.230469 282.671875 129.085938 282.792969 128.964844 C 282.910156 128.847656 283.054688 128.789062 283.222656 128.789062 C 283.394531 128.789062 283.539062 128.847656 283.65625 128.964844 C 283.777344 129.085938 283.835938 129.230469 283.835938 129.398438 Z M 283.835938 129.398438 " fill-opacity="1" fill-rule="nonzero"/><path fill="#5e17eb" d="M 283.847656 135.519531 C 283.847656 135.695312 283.785156 135.839844 283.664062 135.960938 C 283.542969 136.085938 283.394531 136.144531 283.222656 136.144531 C 283.050781 136.144531 282.90625 136.085938 282.785156 135.960938 C 282.660156 135.839844 282.601562 135.695312 282.601562 135.519531 C 282.601562 135.347656 282.660156 135.203125 282.785156 135.082031 C 282.90625 134.957031 283.050781 134.898438 283.222656 134.898438 C 283.394531 134.898438 283.542969 134.957031 283.664062 135.082031 C 283.785156 135.203125 283.847656 135.347656 283.847656 135.519531 Z M 283.847656 135.519531 " fill-opacity="1" fill-rule="nonzero"/><path fill="#5e17eb" d="M 283.847656 141.644531 C 283.847656 141.816406 283.785156 141.960938 283.664062 142.085938 C 283.542969 142.207031 283.394531 142.265625 283.222656 142.265625 C 283.050781 142.265625 282.90625 142.207031 282.785156 142.085938 C 282.660156 141.960938 282.601562 141.816406 282.601562 141.644531 C 282.601562 141.472656 282.660156 141.324219 282.785156 141.203125 C 282.90625 141.082031 283.050781 141.019531 283.222656 141.019531 C 283.394531 141.019531 283.542969 141.082031 283.664062 141.203125 C 283.785156 141.324219 283.847656 141.472656 283.847656 141.644531 Z M 283.847656 141.644531 " fill-opacity="1" fill-rule="nonzero"/><path fill="#5e17eb" d="M 283.859375 147.753906 C 283.859375 147.929688 283.796875 148.078125 283.671875 148.203125 C 283.550781 148.328125 283.398438 148.386719 283.222656 148.386719 C 283.046875 148.386719 282.898438 148.328125 282.773438 148.203125 C 282.652344 148.078125 282.589844 147.929688 282.589844 147.753906 C 282.589844 147.578125 282.652344 147.429688 282.773438 147.304688 C 282.898438 147.179688 283.046875 147.117188 283.222656 147.117188 C 283.398438 147.117188 283.550781 147.179688 283.671875 147.304688 C 283.796875 147.429688 283.859375 147.578125 283.859375 147.753906 Z M 283.859375 147.753906 " fill-opacity="1" fill-rule="nonzero"/><path fill="#5e17eb" d="M 283.871094 153.875 C 283.871094 154.054688 283.808594 154.207031 283.679688 154.332031 C 283.554688 154.457031 283.402344 154.523438 283.222656 154.523438 C 283.046875 154.523438 282.894531 154.457031 282.765625 154.332031 C 282.640625 154.207031 282.578125 154.054688 282.578125 153.875 C 282.578125 153.695312 282.640625 153.542969 282.765625 153.417969 C 282.894531 153.292969 283.046875 153.230469 283.222656 153.230469 C 283.402344 153.230469 283.554688 153.292969 283.679688 153.417969 C 283.808594 153.542969 283.871094 153.695312 283.871094 153.875 Z M 283.871094 153.875 " fill-opacity="1" fill-rule="nonzero"/><path fill="#5e17eb" d="M 283.882812 159.996094 C 283.882812 160.179688 283.816406 160.332031 283.6875 160.460938 C 283.5625 160.589844 283.40625 160.65625 283.222656 160.65625 C 283.042969 160.65625 282.886719 160.589844 282.757812 160.460938 C 282.628906 160.332031 282.566406 160.179688 282.566406 159.996094 C 282.566406 159.816406 282.628906 159.660156 282.757812 159.53125 C 282.886719 159.402344 283.042969 159.339844 283.222656 159.339844 C 283.40625 159.339844 283.5625 159.402344 283.6875 159.53125 C 283.816406 159.660156 283.882812 159.816406 283.882812 159.996094 Z M 283.882812 159.996094 " fill-opacity="1" fill-rule="nonzero"/><path fill="#5e17eb" d="M 283.90625 166.109375 C 283.90625 166.296875 283.839844 166.457031 283.707031 166.589844 C 283.570312 166.722656 283.410156 166.789062 283.222656 166.789062 C 283.035156 166.789062 282.875 166.722656 282.742188 166.589844 C 282.609375 166.457031 282.542969 166.296875 282.542969 166.109375 C 282.542969 165.917969 282.609375 165.757812 282.742188 165.625 C 282.875 165.492188 283.035156 165.425781 283.222656 165.425781 C 283.410156 165.425781 283.570312 165.492188 283.703125 165.625 C 283.839844 165.757812 283.90625 165.917969 283.90625 166.109375 Z M 283.90625 166.109375 " fill-opacity="1" fill-rule="nonzero"/><path fill="#5e17eb" d="M 283.925781 172.230469 C 283.925781 172.421875 283.859375 172.589844 283.722656 172.726562 C 283.582031 172.863281 283.417969 172.933594 283.222656 172.933594 C 283.03125 172.933594 282.863281 172.863281 282.726562 172.726562 C 282.589844 172.589844 282.519531 172.421875 282.519531 172.230469 C 282.519531 172.035156 282.589844 171.871094 282.726562 171.734375 C 282.863281 171.59375 283.03125 171.527344 283.222656 171.527344 C 283.417969 171.527344 283.582031 171.59375 283.722656 171.734375 C 283.859375 171.871094 283.925781 172.035156 283.925781 172.230469 Z M 283.925781 172.230469 " fill-opacity="1" fill-rule="nonzero"/><path fill="#5e17eb" d="M 283.949219 178.351562 C 283.949219 178.550781 283.878906 178.722656 283.738281 178.863281 C 283.59375 179.007812 283.425781 179.078125 283.222656 179.078125 C 283.023438 179.078125 282.851562 179.007812 282.710938 178.863281 C 282.570312 178.722656 282.5 178.550781 282.5 178.351562 C 282.5 178.152344 282.570312 177.980469 282.710938 177.839844 C 282.851562 177.695312 283.023438 177.625 283.222656 177.625 C 283.425781 177.625 283.59375 177.695312 283.738281 177.839844 C 283.878906 177.980469 283.949219 178.152344 283.949219 178.351562 Z M 283.949219 178.351562 " fill-opacity="1" fill-rule="nonzero"/><path fill="#5e17eb" d="M 283.972656 184.460938 C 283.972656 184.667969 283.898438 184.84375 283.753906 184.992188 C 283.605469 185.136719 283.429688 185.210938 283.222656 185.210938 C 283.015625 185.210938 282.839844 185.136719 282.695312 184.992188 C 282.550781 184.84375 282.476562 184.667969 282.476562 184.460938 C 282.476562 184.253906 282.550781 184.078125 282.695312 183.933594 C 282.839844 183.785156 283.015625 183.714844 283.222656 183.714844 C 283.429688 183.714844 283.605469 183.785156 283.753906 183.933594 C 283.898438 184.078125 283.972656 184.253906 283.972656 184.460938 Z M 283.972656 184.460938 " fill-opacity="1" fill-rule="nonzero"/><path fill="#5e17eb" d="M 284.007812 190.582031 C 284.007812 190.800781 283.929688 190.984375 283.777344 191.136719 C 283.625 191.289062 283.441406 191.367188 283.222656 191.367188 C 283.007812 191.367188 282.824219 191.289062 282.671875 191.136719 C 282.519531 190.984375 282.441406 190.800781 282.441406 190.582031 C 282.441406 190.367188 282.519531 190.183594 282.671875 190.03125 C 282.824219 189.878906 283.007812 189.800781 283.222656 189.800781 C 283.441406 189.800781 283.625 189.878906 283.777344 190.03125 C 283.929688 190.183594 284.007812 190.367188 284.007812 190.582031 Z M 284.007812 190.582031 " fill-opacity="1" fill-rule="nonzero"/><path fill="#5e17eb" d="M 284.027344 196.707031 C 284.027344 196.925781 283.949219 197.117188 283.792969 197.273438 C 283.636719 197.433594 283.445312 197.511719 283.222656 197.511719 C 283 197.511719 282.8125 197.433594 282.65625 197.273438 C 282.496094 197.117188 282.417969 196.925781 282.417969 196.707031 C 282.417969 196.484375 282.496094 196.292969 282.65625 196.136719 C 282.8125 195.980469 283 195.902344 283.222656 195.902344 C 283.445312 195.902344 283.636719 195.980469 283.792969 196.136719 C 283.949219 196.292969 284.027344 196.484375 284.027344 196.707031 Z M 284.027344 196.707031 " fill-opacity="1" fill-rule="nonzero"/><path fill="#5e17eb" d="M 284.0625 202.816406 C 284.0625 203.046875 283.980469 203.246094 283.816406 203.410156 C 283.652344 203.574219 283.457031 203.65625 283.222656 203.65625 C 282.992188 203.65625 282.792969 203.574219 282.632812 203.410156 C 282.46875 203.246094 282.386719 203.046875 282.386719 202.816406 C 282.386719 202.585938 282.46875 202.386719 282.632812 202.222656 C 282.792969 202.058594 282.992188 201.976562 283.222656 201.976562 C 283.457031 201.976562 283.652344 202.058594 283.816406 202.222656 C 283.980469 202.386719 284.0625 202.585938 284.0625 202.816406 Z M 284.0625 202.816406 " fill-opacity="1" fill-rule="nonzero"/><path fill="#5e17eb" d="M 284.097656 208.9375 C 284.097656 209.179688 284.011719 209.382812 283.839844 209.554688 C 283.671875 209.726562 283.464844 209.8125 283.222656 209.8125 C 282.984375 209.8125 282.777344 209.726562 282.605469 209.554688 C 282.4375 209.382812 282.351562 209.179688 282.351562 208.9375 C 282.351562 208.695312 282.4375 208.492188 282.605469 208.320312 C 282.777344 208.148438 282.984375 208.066406 283.222656 208.066406 C 283.464844 208.066406 283.671875 208.148438 283.839844 208.320312 C 284.011719 208.492188 284.097656 208.695312 284.097656 208.9375 Z M 284.097656 208.9375 " fill-opacity="1" fill-rule="nonzero"/><path fill="#5e17eb" d="M 283.222656 236.949219 C 284.484375 240.839844 285.503906 241.859375 289.390625 243.117188 C 285.503906 244.375 284.484375 245.398438 283.222656 249.285156 C 281.964844 245.398438 280.945312 244.375 277.058594 243.117188 C 280.945312 241.859375 281.964844 240.839844 283.222656 236.949219 Z M 283.222656 236.949219 " fill-opacity="1" fill-rule="nonzero"/><path fill="#5e17eb" d="M 285.820312 228.085938 C 285.820312 228.429688 285.753906 228.761719 285.621094 229.078125 C 285.492188 229.398438 285.304688 229.675781 285.058594 229.921875 C 284.816406 230.164062 284.535156 230.351562 284.21875 230.484375 C 283.898438 230.617188 283.570312 230.679688 283.222656 230.679688 C 282.878906 230.679688 282.546875 230.617188 282.230469 230.484375 C 281.914062 230.351562 281.632812 230.164062 281.386719 229.921875 C 281.144531 229.675781 280.957031 229.398438 280.824219 229.078125 C 280.695312 228.761719 280.628906 228.429688 280.628906 228.085938 C 280.628906 227.742188 280.695312 227.410156 280.824219 227.09375 C 280.957031 226.773438 281.144531 226.492188 281.386719 226.25 C 281.632812 226.007812 281.914062 225.820312 282.230469 225.6875 C 282.546875 225.554688 282.878906 225.488281 283.222656 225.488281 C 283.570312 225.488281 283.898438 225.554688 284.21875 225.6875 C 284.535156 225.820312 284.816406 226.007812 285.058594 226.25 C 285.304688 226.492188 285.492188 226.773438 285.621094 227.09375 C 285.753906 227.410156 285.820312 227.742188 285.820312 228.085938 Z M 285.820312 228.085938 " fill-opacity="1" fill-rule="nonzero"/><path fill="#5e17eb" d="M 285.820312 217.679688 C 285.820312 218.023438 285.753906 218.355469 285.621094 218.671875 C 285.492188 218.988281 285.304688 219.269531 285.058594 219.515625 C 284.816406 219.757812 284.535156 219.945312 284.21875 220.078125 C 283.898438 220.207031 283.570312 220.273438 283.222656 220.273438 C 282.878906 220.273438 282.546875 220.207031 282.230469 220.078125 C 281.914062 219.945312 281.632812 219.757812 281.386719 219.515625 C 281.144531 219.269531 280.957031 218.988281 280.824219 218.671875 C 280.695312 218.355469 280.628906 218.023438 280.628906 217.679688 C 280.628906 217.335938 280.695312 217.003906 280.824219 216.683594 C 280.957031 216.367188 281.144531 216.085938 281.386719 215.84375 C 281.632812 215.597656 281.914062 215.410156 282.230469 215.28125 C 282.546875 215.148438 282.878906 215.082031 283.222656 215.082031 C 283.570312 215.082031 283.898438 215.148438 284.21875 215.28125 C 284.535156 215.410156 284.816406 215.597656 285.058594 215.84375 C 285.304688 216.085938 285.492188 216.367188 285.621094 216.683594 C 285.753906 217.003906 285.820312 217.335938 285.820312 217.679688 Z M 285.820312 217.679688 " fill-opacity="1" fill-rule="nonzero"/><path fill="#5e17eb" d="M 283.222656 22.1875 C 281.964844 18.300781 280.945312 17.28125 277.058594 16.023438 C 280.945312 14.761719 281.964844 13.742188 283.222656 9.855469 C 284.484375 13.742188 285.503906 14.761719 289.390625 16.023438 C 285.503906 17.28125 284.484375 18.300781 283.222656 22.1875 Z M 283.222656 22.1875 " fill-opacity="1" fill-rule="nonzero"/><path fill="#5e17eb" d="M 285.820312 31.066406 C 285.820312 31.410156 285.753906 31.742188 285.621094 32.058594 C 285.492188 32.375 285.304688 32.65625 285.058594 32.902344 C 284.816406 33.144531 284.535156 33.332031 284.21875 33.464844 C 283.898438 33.59375 283.570312 33.660156 283.222656 33.660156 C 282.878906 33.660156 282.546875 33.59375 282.230469 33.464844 C 281.914062 33.332031 281.632812 33.144531 281.386719 32.902344 C 281.144531 32.65625 280.957031 32.375 280.824219 32.058594 C 280.695312 31.742188 280.628906 31.410156 280.628906 31.066406 C 280.628906 30.722656 280.695312 30.390625 280.824219 30.070312 C 280.957031 29.753906 281.144531 29.472656 281.386719 29.230469 C 281.632812 28.984375 281.914062 28.796875 282.230469 28.667969 C 282.546875 28.535156 282.878906 28.46875 283.222656 28.46875 C 283.570312 28.46875 283.898438 28.535156 284.21875 28.667969 C 284.535156 28.796875 284.816406 28.984375 285.058594 29.230469 C 285.304688 29.472656 285.492188 29.753906 285.621094 30.070312 C 285.753906 30.390625 285.820312 30.722656 285.820312 31.066406 Z M 285.820312 31.066406 " fill-opacity="1" fill-rule="nonzero"/><path fill="#5e17eb" d="M 285.820312 41.460938 C 285.820312 41.804688 285.753906 42.136719 285.621094 42.453125 C 285.492188 42.773438 285.304688 43.054688 285.058594 43.296875 C 284.816406 43.539062 284.535156 43.726562 284.21875 43.859375 C 283.898438 43.992188 283.570312 44.058594 283.222656 44.058594 C 282.878906 44.058594 282.546875 43.992188 282.230469 43.859375 C 281.914062 43.726562 281.632812 43.539062 281.386719 43.296875 C 281.144531 43.054688 280.957031 42.773438 280.824219 42.453125 C 280.695312 42.136719 280.628906 41.804688 280.628906 41.460938 C 280.628906 41.117188 280.695312 40.785156 280.824219 40.46875 C 280.957031 40.148438 281.144531 39.867188 281.386719 39.625 C 281.632812 39.382812 281.914062 39.195312 282.230469 39.0625 C 282.546875 38.929688 282.878906 38.863281 283.222656 38.863281 C 283.570312 38.863281 283.898438 38.929688 284.21875 39.0625 C 284.535156 39.195312 284.816406 39.382812 285.058594 39.625 C 285.304688 39.867188 285.492188 40.148438 285.621094 40.46875 C 285.753906 40.785156 285.820312 41.117188 285.820312 41.460938 Z M 285.820312 41.460938 " fill-opacity="1" fill-rule="nonzero"/><path fill="#5e17eb" d="M 90.851562 243.117188 C 90.851562 243.359375 90.765625 243.566406 90.597656 243.734375 C 90.425781 243.90625 90.21875 243.992188 89.980469 243.992188 C 89.738281 243.992188 89.53125 243.90625 89.363281 243.734375 C 89.191406 243.566406 89.105469 243.359375 89.105469 243.117188 C 89.105469 242.875 89.191406 242.671875 89.363281 242.5 C 89.53125 242.328125 89.738281 242.246094 89.980469 242.246094 C 90.21875 242.246094 90.425781 242.328125 90.597656 242.5 C 90.765625 242.671875 90.851562 242.875 90.851562 243.117188 Z M 90.851562 243.117188 " fill-opacity="1" fill-rule="nonzero"/><path fill="#5e17eb" d="M 96.929688 243.117188 C 96.929688 243.347656 96.847656 243.546875 96.683594 243.710938 C 96.519531 243.875 96.320312 243.957031 96.089844 243.957031 C 95.859375 243.957031 95.660156 243.875 95.496094 243.710938 C 95.332031 243.546875 95.25 243.347656 95.25 243.117188 C 95.25 242.886719 95.332031 242.6875 95.496094 242.523438 C 95.660156 242.359375 95.859375 242.277344 96.089844 242.277344 C 96.320312 242.277344 96.519531 242.359375 96.683594 242.523438 C 96.847656 242.6875 96.929688 242.886719 96.929688 243.117188 Z M 96.929688 243.117188 " fill-opacity="1" fill-rule="nonzero"/><path fill="#5e17eb" d="M 103.015625 243.117188 C 103.015625 243.339844 102.9375 243.53125 102.78125 243.6875 C 102.625 243.84375 102.433594 243.921875 102.210938 243.921875 C 101.988281 243.921875 101.800781 243.84375 101.640625 243.6875 C 101.484375 243.53125 101.40625 243.339844 101.40625 243.117188 C 101.40625 242.894531 101.484375 242.707031 101.640625 242.546875 C 101.800781 242.390625 101.988281 242.3125 102.210938 242.3125 C 102.433594 242.3125 102.625 242.390625 102.78125 242.546875 C 102.9375 242.707031 103.015625 242.894531 103.015625 243.117188 Z M 103.015625 243.117188 " fill-opacity="1" fill-rule="nonzero"/><path fill="#5e17eb" d="M 109.117188 243.117188 C 109.117188 243.332031 109.039062 243.519531 108.886719 243.671875 C 108.734375 243.824219 108.550781 243.898438 108.332031 243.898438 C 108.117188 243.898438 107.933594 243.824219 107.78125 243.671875 C 107.628906 243.519531 107.550781 243.332031 107.550781 243.117188 C 107.550781 242.902344 107.628906 242.71875 107.78125 242.566406 C 107.933594 242.410156 108.117188 242.335938 108.332031 242.335938 C 108.550781 242.335938 108.734375 242.410156 108.886719 242.566406 C 109.039062 242.71875 109.117188 242.902344 109.117188 243.117188 Z M 109.117188 243.117188 " fill-opacity="1" fill-rule="nonzero"/><path fill="#5e17eb" d="M 115.191406 243.117188 C 115.191406 243.324219 115.117188 243.5 114.972656 243.648438 C 114.828125 243.792969 114.648438 243.867188 114.445312 243.867188 C 114.238281 243.867188 114.0625 243.792969 113.914062 243.648438 C 113.769531 243.5 113.695312 243.324219 113.695312 243.117188 C 113.695312 242.910156 113.769531 242.734375 113.914062 242.589844 C 114.0625 242.441406 114.238281 242.371094 114.445312 242.371094 C 114.648438 242.371094 114.828125 242.441406 114.972656 242.589844 C 115.117188 242.734375 115.191406 242.910156 115.191406 243.117188 Z M 115.191406 243.117188 " fill-opacity="1" fill-rule="nonzero"/><path fill="#5e17eb" d="M 121.292969 243.117188 C 121.292969 243.316406 121.21875 243.488281 121.078125 243.628906 C 120.9375 243.773438 120.765625 243.84375 120.566406 243.84375 C 120.363281 243.84375 120.195312 243.773438 120.050781 243.628906 C 119.910156 243.488281 119.839844 243.316406 119.839844 243.117188 C 119.839844 242.917969 119.910156 242.746094 120.050781 242.605469 C 120.195312 242.464844 120.363281 242.390625 120.566406 242.390625 C 120.765625 242.390625 120.9375 242.464844 121.078125 242.605469 C 121.21875 242.746094 121.292969 242.917969 121.292969 243.117188 Z M 121.292969 243.117188 " fill-opacity="1" fill-rule="nonzero"/><path fill="#5e17eb" d="M 127.390625 243.117188 C 127.390625 243.3125 127.320312 243.476562 127.183594 243.613281 C 127.046875 243.753906 126.882812 243.820312 126.6875 243.820312 C 126.492188 243.820312 126.328125 243.753906 126.191406 243.613281 C 126.054688 243.476562 125.984375 243.3125 125.984375 243.117188 C 125.984375 242.921875 126.054688 242.757812 126.191406 242.621094 C 126.328125 242.484375 126.492188 242.414062 126.6875 242.414062 C 126.882812 242.414062 127.046875 242.484375 127.183594 242.621094 C 127.320312 242.757812 127.390625 242.921875 127.390625 243.117188 Z M 127.390625 243.117188 " fill-opacity="1" fill-rule="nonzero"/><path fill="#5e17eb" d="M 133.476562 243.117188 C 133.476562 243.304688 133.410156 243.464844 133.277344 243.597656 C 133.144531 243.730469 132.984375 243.796875 132.796875 243.796875 C 132.609375 243.796875 132.449219 243.730469 132.316406 243.597656 C 132.183594 243.464844 132.117188 243.304688 132.117188 243.117188 C 132.117188 242.929688 132.183594 242.769531 132.316406 242.636719 C 132.449219 242.503906 132.609375 242.4375 132.796875 242.4375 C 132.984375 242.4375 133.144531 242.503906 133.277344 242.636719 C 133.410156 242.769531 133.476562 242.929688 133.476562 243.117188 Z M 133.476562 243.117188 " fill-opacity="1" fill-rule="nonzero"/><path fill="#5e17eb" d="M 139.578125 243.117188 C 139.578125 243.300781 139.511719 243.453125 139.382812 243.582031 C 139.257812 243.710938 139.101562 243.773438 138.917969 243.773438 C 138.738281 243.773438 138.582031 243.710938 138.453125 243.582031 C 138.328125 243.453125 138.261719 243.300781 138.261719 243.117188 C 138.261719 242.9375 138.328125 242.78125 138.453125 242.652344 C 138.582031 242.523438 138.738281 242.460938 138.917969 242.460938 C 139.101562 242.460938 139.257812 242.523438 139.382812 242.652344 C 139.511719 242.78125 139.578125 242.9375 139.578125 243.117188 Z M 139.578125 243.117188 " fill-opacity="1" fill-rule="nonzero"/><path fill="#5e17eb" d="M 145.6875 243.117188 C 145.6875 243.296875 145.625 243.449219 145.5 243.574219 C 145.371094 243.699219 145.21875 243.765625 145.042969 243.765625 C 144.863281 243.765625 144.710938 243.699219 144.585938 243.574219 C 144.457031 243.449219 144.394531 243.296875 144.394531 243.117188 C 144.394531 242.9375 144.457031 242.785156 144.585938 242.660156 C 144.710938 242.535156 144.863281 242.472656 145.042969 242.472656 C 145.21875 242.472656 145.371094 242.535156 145.5 242.660156 C 145.625 242.785156 145.6875 242.9375 145.6875 243.117188 Z M 145.6875 243.117188 " fill-opacity="1" fill-rule="nonzero"/><path fill="#5e17eb" d="M 151.785156 243.117188 C 151.785156 243.292969 151.726562 243.441406 151.601562 243.566406 C 151.476562 243.691406 151.328125 243.753906 151.152344 243.753906 C 150.976562 243.753906 150.828125 243.691406 150.703125 243.566406 C 150.578125 243.441406 150.515625 243.292969 150.515625 243.117188 C 150.515625 242.941406 150.578125 242.792969 150.703125 242.667969 C 150.828125 242.542969 150.976562 242.484375 151.152344 242.484375 C 151.328125 242.484375 151.476562 242.542969 151.601562 242.667969 C 151.726562 242.792969 151.785156 242.941406 151.785156 243.117188 Z M 151.785156 243.117188 " fill-opacity="1" fill-rule="nonzero"/><path fill="#5e17eb" d="M 157.898438 243.117188 C 157.898438 243.289062 157.835938 243.4375 157.714844 243.558594 C 157.59375 243.679688 157.445312 243.742188 157.273438 243.742188 C 157.101562 243.742188 156.953125 243.679688 156.832031 243.558594 C 156.710938 243.4375 156.648438 243.289062 156.648438 243.117188 C 156.648438 242.945312 156.710938 242.796875 156.832031 242.675781 C 156.953125 242.554688 157.101562 242.496094 157.273438 242.496094 C 157.445312 242.496094 157.59375 242.554688 157.714844 242.675781 C 157.835938 242.796875 157.898438 242.945312 157.898438 243.117188 Z M 157.898438 243.117188 " fill-opacity="1" fill-rule="nonzero"/><path fill="#5e17eb" d="M 164.019531 243.117188 C 164.019531 243.289062 163.957031 243.4375 163.835938 243.558594 C 163.714844 243.679688 163.566406 243.742188 163.394531 243.742188 C 163.222656 243.742188 163.078125 243.679688 162.953125 243.558594 C 162.832031 243.4375 162.773438 243.289062 162.773438 243.117188 C 162.773438 242.945312 162.832031 242.796875 162.953125 242.675781 C 163.078125 242.554688 163.222656 242.496094 163.394531 242.496094 C 163.566406 242.496094 163.714844 242.554688 163.835938 242.675781 C 163.957031 242.796875 164.019531 242.945312 164.019531 243.117188 Z M 164.019531 243.117188 " fill-opacity="1" fill-rule="nonzero"/><path fill="#5e17eb" d="M 170.117188 243.117188 C 170.117188 243.285156 170.058594 243.429688 169.9375 243.550781 C 169.820312 243.671875 169.675781 243.730469 169.507812 243.730469 C 169.335938 243.730469 169.191406 243.671875 169.074219 243.550781 C 168.953125 243.429688 168.894531 243.285156 168.894531 243.117188 C 168.894531 242.949219 168.953125 242.804688 169.074219 242.683594 C 169.191406 242.566406 169.335938 242.503906 169.507812 242.503906 C 169.675781 242.503906 169.820312 242.566406 169.9375 242.683594 C 170.058594 242.804688 170.117188 242.949219 170.117188 243.117188 Z M 170.117188 243.117188 " fill-opacity="1" fill-rule="nonzero"/><path fill="#5e17eb" d="M 176.25 243.117188 C 176.25 243.289062 176.191406 243.4375 176.070312 243.558594 C 175.945312 243.679688 175.800781 243.742188 175.628906 243.742188 C 175.457031 243.742188 175.308594 243.679688 175.1875 243.558594 C 175.066406 243.4375 175.003906 243.289062 175.003906 243.117188 C 175.003906 242.945312 175.066406 242.796875 175.1875 242.675781 C 175.308594 242.554688 175.457031 242.496094 175.628906 242.496094 C 175.800781 242.496094 175.945312 242.554688 176.070312 242.675781 C 176.191406 242.796875 176.25 242.945312 176.25 243.117188 Z M 176.25 243.117188 " fill-opacity="1" fill-rule="nonzero"/><path fill="#5e17eb" d="M 182.375 243.117188 C 182.375 243.289062 182.3125 243.4375 182.191406 243.558594 C 182.070312 243.679688 181.921875 243.742188 181.75 243.742188 C 181.578125 243.742188 181.429688 243.679688 181.308594 243.558594 C 181.1875 243.4375 181.125 243.289062 181.125 243.117188 C 181.125 242.945312 181.1875 242.796875 181.308594 242.675781 C 181.429688 242.554688 181.578125 242.496094 181.75 242.496094 C 181.921875 242.496094 182.070312 242.554688 182.191406 242.675781 C 182.3125 242.796875 182.375 242.945312 182.375 243.117188 Z M 182.375 243.117188 " fill-opacity="1" fill-rule="nonzero"/><path fill="#5e17eb" d="M 188.496094 243.117188 C 188.496094 243.292969 188.433594 243.441406 188.308594 243.566406 C 188.183594 243.691406 188.035156 243.753906 187.859375 243.753906 C 187.683594 243.753906 187.535156 243.691406 187.410156 243.566406 C 187.289062 243.441406 187.226562 243.292969 187.226562 243.117188 C 187.226562 242.941406 187.289062 242.792969 187.410156 242.667969 C 187.535156 242.542969 187.683594 242.484375 187.859375 242.484375 C 188.035156 242.484375 188.183594 242.542969 188.308594 242.667969 C 188.433594 242.792969 188.496094 242.941406 188.496094 243.117188 Z M 188.496094 243.117188 " fill-opacity="1" fill-rule="nonzero"/><path fill="#5e17eb" d="M 194.628906 243.117188 C 194.628906 243.296875 194.566406 243.449219 194.4375 243.574219 C 194.3125 243.699219 194.160156 243.765625 193.980469 243.765625 C 193.804688 243.765625 193.652344 243.699219 193.523438 243.574219 C 193.398438 243.449219 193.335938 243.296875 193.335938 243.117188 C 193.335938 242.9375 193.398438 242.785156 193.523438 242.660156 C 193.652344 242.535156 193.804688 242.472656 193.980469 242.472656 C 194.160156 242.472656 194.3125 242.535156 194.4375 242.660156 C 194.566406 242.785156 194.628906 242.9375 194.628906 243.117188 Z M 194.628906 243.117188 " fill-opacity="1" fill-rule="nonzero"/><path fill="#5e17eb" d="M 200.761719 243.117188 C 200.761719 243.300781 200.695312 243.453125 200.570312 243.582031 C 200.441406 243.710938 200.285156 243.773438 200.105469 243.773438 C 199.921875 243.773438 199.765625 243.710938 199.636719 243.582031 C 199.511719 243.453125 199.445312 243.300781 199.445312 243.117188 C 199.445312 242.9375 199.511719 242.78125 199.636719 242.652344 C 199.765625 242.523438 199.921875 242.460938 200.105469 242.460938 C 200.285156 242.460938 200.441406 242.523438 200.570312 242.652344 C 200.695312 242.78125 200.761719 242.9375 200.761719 243.117188 Z M 200.761719 243.117188 " fill-opacity="1" fill-rule="nonzero"/><path fill="#5e17eb" d="M 206.894531 243.117188 C 206.894531 243.304688 206.828125 243.464844 206.695312 243.597656 C 206.5625 243.730469 206.402344 243.796875 206.214844 243.796875 C 206.027344 243.796875 205.867188 243.730469 205.734375 243.597656 C 205.601562 243.464844 205.535156 243.304688 205.535156 243.117188 C 205.535156 242.929688 205.601562 242.769531 205.734375 242.636719 C 205.867188 242.503906 206.027344 242.4375 206.214844 242.4375 C 206.402344 242.4375 206.5625 242.503906 206.695312 242.636719 C 206.828125 242.769531 206.894531 242.929688 206.894531 243.117188 Z M 206.894531 243.117188 " fill-opacity="1" fill-rule="nonzero"/><path fill="#5e17eb" d="M 213.039062 243.117188 C 213.039062 243.3125 212.96875 243.476562 212.832031 243.613281 C 212.695312 243.753906 212.53125 243.820312 212.335938 243.820312 C 212.140625 243.820312 211.976562 243.753906 211.839844 243.613281 C 211.703125 243.476562 211.632812 243.3125 211.632812 243.117188 C 211.632812 242.921875 211.703125 242.757812 211.839844 242.621094 C 211.976562 242.484375 212.140625 242.414062 212.335938 242.414062 C 212.53125 242.414062 212.695312 242.484375 212.832031 242.621094 C 212.96875 242.757812 213.039062 242.921875 213.039062 243.117188 Z M 213.039062 243.117188 " fill-opacity="1" fill-rule="nonzero"/><path fill="#5e17eb" d="M 219.183594 243.117188 C 219.183594 243.316406 219.113281 243.488281 218.972656 243.628906 C 218.828125 243.773438 218.65625 243.84375 218.457031 243.84375 C 218.257812 243.84375 218.085938 243.773438 217.945312 243.628906 C 217.804688 243.488281 217.730469 243.316406 217.730469 243.117188 C 217.730469 242.917969 217.804688 242.746094 217.945312 242.605469 C 218.085938 242.464844 218.257812 242.390625 218.457031 242.390625 C 218.65625 242.390625 218.828125 242.464844 218.972656 242.605469 C 219.113281 242.746094 219.183594 242.917969 219.183594 243.117188 Z M 219.183594 243.117188 " fill-opacity="1" fill-rule="nonzero"/><path fill="#5e17eb" d="M 225.316406 243.117188 C 225.316406 243.324219 225.242188 243.5 225.097656 243.648438 C 224.949219 243.792969 224.773438 243.867188 224.566406 243.867188 C 224.363281 243.867188 224.183594 243.792969 224.039062 243.648438 C 223.894531 243.5 223.820312 243.324219 223.820312 243.117188 C 223.820312 242.910156 223.894531 242.734375 224.039062 242.589844 C 224.183594 242.441406 224.363281 242.371094 224.566406 242.371094 C 224.773438 242.371094 224.949219 242.441406 225.097656 242.589844 C 225.242188 242.734375 225.316406 242.910156 225.316406 243.117188 Z M 225.316406 243.117188 " fill-opacity="1" fill-rule="nonzero"/><path fill="#5e17eb" d="M 231.472656 243.117188 C 231.472656 243.332031 231.394531 243.519531 231.242188 243.671875 C 231.089844 243.824219 230.90625 243.898438 230.691406 243.898438 C 230.472656 243.898438 230.289062 243.824219 230.136719 243.671875 C 229.984375 243.519531 229.90625 243.332031 229.90625 243.117188 C 229.90625 242.902344 229.984375 242.71875 230.136719 242.566406 C 230.289062 242.410156 230.472656 242.335938 230.691406 242.335938 C 230.90625 242.335938 231.089844 242.410156 231.242188 242.566406 C 231.394531 242.71875 231.472656 242.902344 231.472656 243.117188 Z M 231.472656 243.117188 " fill-opacity="1" fill-rule="nonzero"/><path fill="#5e17eb" d="M 237.617188 243.117188 C 237.617188 243.339844 237.539062 243.53125 237.382812 243.6875 C 237.222656 243.84375 237.035156 243.921875 236.8125 243.921875 C 236.589844 243.921875 236.398438 243.84375 236.242188 243.6875 C 236.085938 243.53125 236.007812 243.339844 236.007812 243.117188 C 236.007812 242.894531 236.085938 242.707031 236.242188 242.546875 C 236.398438 242.390625 236.589844 242.3125 236.8125 242.3125 C 237.035156 242.3125 237.222656 242.390625 237.382812 242.546875 C 237.539062 242.707031 237.617188 242.894531 237.617188 243.117188 Z M 237.617188 243.117188 " fill-opacity="1" fill-rule="nonzero"/><path fill="#5e17eb" d="M 243.761719 243.117188 C 243.761719 243.347656 243.679688 243.546875 243.515625 243.710938 C 243.351562 243.875 243.152344 243.957031 242.921875 243.957031 C 242.691406 243.957031 242.492188 243.875 242.328125 243.710938 C 242.164062 243.546875 242.082031 243.347656 242.082031 243.117188 C 242.082031 242.886719 242.164062 242.6875 242.328125 242.523438 C 242.492188 242.359375 242.691406 242.277344 242.921875 242.277344 C 243.152344 242.277344 243.351562 242.359375 243.515625 242.523438 C 243.679688 242.6875 243.761719 242.886719 243.761719 243.117188 Z M 243.761719 243.117188 " fill-opacity="1" fill-rule="nonzero"/><path fill="#5e17eb" d="M 249.917969 243.117188 C 249.917969 243.359375 249.832031 243.566406 249.660156 243.734375 C 249.492188 243.90625 249.285156 243.992188 249.042969 243.992188 C 248.804688 243.992188 248.597656 243.90625 248.425781 243.734375 C 248.257812 243.566406 248.171875 243.359375 248.171875 243.117188 C 248.171875 242.875 248.257812 242.671875 248.425781 242.5 C 248.597656 242.328125 248.804688 242.246094 249.042969 242.246094 C 249.285156 242.246094 249.492188 242.328125 249.660156 242.5 C 249.832031 242.671875 249.917969 242.875 249.917969 243.117188 Z M 249.917969 243.117188 " fill-opacity="1" fill-rule="nonzero"/><path fill="#5e17eb" d="M 277.058594 243.117188 C 280.945312 241.859375 281.964844 240.839844 283.222656 236.949219 C 284.484375 240.839844 285.503906 241.859375 289.390625 243.117188 C 285.503906 244.375 284.484375 245.398438 283.222656 249.285156 C 281.964844 245.398438 280.945312 244.375 277.058594 243.117188 Z M 277.058594 243.117188 " fill-opacity="1" fill-rule="nonzero"/><path fill="#5e17eb" d="M 270.777344 243.117188 C 270.777344 243.460938 270.710938 243.792969 270.578125 244.109375 C 270.445312 244.429688 270.257812 244.710938 270.015625 244.953125 C 269.773438 245.195312 269.492188 245.382812 269.171875 245.515625 C 268.855469 245.648438 268.523438 245.714844 268.179688 245.714844 C 267.835938 245.714844 267.503906 245.648438 267.1875 245.515625 C 266.867188 245.382812 266.589844 245.195312 266.34375 244.953125 C 266.101562 244.710938 265.914062 244.429688 265.78125 244.109375 C 265.648438 243.792969 265.585938 243.460938 265.585938 243.117188 C 265.585938 242.773438 265.648438 242.441406 265.78125 242.125 C 265.914062 241.804688 266.101562 241.527344 266.34375 241.28125 C 266.589844 241.039062 266.867188 240.851562 267.1875 240.71875 C 267.503906 240.585938 267.835938 240.523438 268.179688 240.523438 C 268.523438 240.523438 268.855469 240.585938 269.171875 240.71875 C 269.492188 240.851562 269.773438 241.039062 270.015625 241.28125 C 270.257812 241.527344 270.445312 241.804688 270.578125 242.125 C 270.710938 242.441406 270.777344 242.773438 270.777344 243.117188 Z M 270.777344 243.117188 " fill-opacity="1" fill-rule="nonzero"/><path fill="#5e17eb" d="M 260.378906 243.117188 C 260.378906 243.460938 260.316406 243.792969 260.183594 244.109375 C 260.050781 244.429688 259.863281 244.710938 259.621094 244.953125 C 259.375 245.195312 259.097656 245.382812 258.777344 245.515625 C 258.460938 245.648438 258.128906 245.714844 257.785156 245.714844 C 257.441406 245.714844 257.109375 245.648438 256.792969 245.515625 C 256.472656 245.382812 256.191406 245.195312 255.949219 244.953125 C 255.707031 244.710938 255.519531 244.429688 255.386719 244.109375 C 255.253906 243.792969 255.1875 243.460938 255.1875 243.117188 C 255.1875 242.773438 255.253906 242.441406 255.386719 242.125 C 255.519531 241.804688 255.707031 241.527344 255.949219 241.28125 C 256.191406 241.039062 256.472656 240.851562 256.792969 240.71875 C 257.109375 240.585938 257.441406 240.523438 257.785156 240.523438 C 258.128906 240.523438 258.460938 240.585938 258.777344 240.71875 C 259.097656 240.851562 259.375 241.039062 259.621094 241.28125 C 259.863281 241.527344 260.050781 241.804688 260.183594 242.125 C 260.316406 242.441406 260.378906 242.773438 260.378906 243.117188 Z M 260.378906 243.117188 " fill-opacity="1" fill-rule="nonzero"/><path fill="#5e17eb" d="M 62.296875 243.117188 C 58.40625 244.375 57.386719 245.398438 56.128906 249.285156 C 54.871094 245.398438 53.847656 244.375 49.960938 243.117188 C 53.847656 241.859375 54.871094 240.839844 56.128906 236.949219 C 57.386719 240.839844 58.40625 241.859375 62.296875 243.117188 Z M 62.296875 243.117188 " fill-opacity="1" fill-rule="nonzero"/><path fill="#5e17eb" d="M 73.769531 243.117188 C 73.769531 243.460938 73.703125 243.792969 73.570312 244.109375 C 73.4375 244.429688 73.25 244.710938 73.007812 244.953125 C 72.765625 245.195312 72.484375 245.382812 72.164062 245.515625 C 71.847656 245.648438 71.515625 245.714844 71.171875 245.714844 C 70.828125 245.714844 70.496094 245.648438 70.179688 245.515625 C 69.859375 245.382812 69.578125 245.195312 69.335938 244.953125 C 69.09375 244.710938 68.90625 244.429688 68.773438 244.109375 C 68.640625 243.792969 68.574219 243.460938 68.574219 243.117188 C 68.574219 242.773438 68.640625 242.441406 68.773438 242.125 C 68.90625 241.804688 69.09375 241.527344 69.335938 241.28125 C 69.578125 241.039062 69.859375 240.851562 70.179688 240.71875 C 70.496094 240.585938 70.828125 240.523438 71.171875 240.523438 C 71.515625 240.523438 71.847656 240.585938 72.164062 240.71875 C 72.484375 240.851562 72.765625 241.039062 73.007812 241.28125 C 73.25 241.527344 73.4375 241.804688 73.570312 242.125 C 73.703125 242.441406 73.769531 242.773438 73.769531 243.117188 Z M 73.769531 243.117188 " fill-opacity="1" fill-rule="nonzero"/><path fill="#5e17eb" d="M 84.164062 243.117188 C 84.164062 243.460938 84.097656 243.792969 83.964844 244.109375 C 83.835938 244.429688 83.648438 244.710938 83.402344 244.953125 C 83.160156 245.195312 82.878906 245.382812 82.5625 245.515625 C 82.242188 245.648438 81.910156 245.714844 81.566406 245.714844 C 81.222656 245.714844 80.890625 245.648438 80.574219 245.515625 C 80.253906 245.382812 79.976562 245.195312 79.730469 244.953125 C 79.488281 244.710938 79.300781 244.429688 79.167969 244.109375 C 79.039062 243.792969 78.972656 243.460938 78.972656 243.117188 C 78.972656 242.773438 79.039062 242.441406 79.167969 242.125 C 79.300781 241.804688 79.488281 241.527344 79.730469 241.28125 C 79.976562 241.039062 80.253906 240.851562 80.574219 240.71875 C 80.890625 240.585938 81.222656 240.523438 81.566406 240.523438 C 81.910156 240.523438 82.242188 240.585938 82.5625 240.71875 C 82.878906 240.851562 83.160156 241.039062 83.402344 241.28125 C 83.648438 241.527344 83.835938 241.804688 83.964844 242.125 C 84.097656 242.441406 84.164062 242.773438 84.164062 243.117188 Z M 84.164062 243.117188 " fill-opacity="1" fill-rule="nonzero"/><g clip-path="url(#1ba2854be2)"><g clip-path="url(#c294c49fc0)"><g transform="matrix(1, 0, 0, 1, 319, 103)"><g clip-path="url(#b65eb1abee)"><g clip-path="url(#6a001ee2f8)"><g clip-path="url(#31bbd2a78b)"><path fill="#222222" d="M 0.277344 0.730469 L 5.09375 0.730469 L 5.09375 5.546875 L 0.277344 5.546875 Z M 0.277344 0.730469 " fill-opacity="1" fill-rule="nonzero"/></g></g></g></g></g></g></svg>